<?xml version="1.0" standalone="no"?>
<!DOCTYPE svg PUBLIC "-//W3C//DTD SVG 20010904//EN"
 "http://www.w3.org/TR/2001/REC-SVG-20010904/DTD/svg10.dtd">
<svg version="1.0" xmlns="http://www.w3.org/2000/svg"
 width="800.000000pt" height="1289.000000pt" viewBox="0 0 800.000000 1289.000000"
 preserveAspectRatio="xMidYMid meet">

<g transform="translate(0.000000,1289.000000) scale(0.100000,-0.100000)"
fill="#000000" stroke="none">
<path d="M4962 12500 c-1 -19 -5 -46 -7 -60 l-6 -25 11 25 c6 13 9 40 7 60
l-4 35 -1 -35z"/>
<path d="M4335 12380 c-27 -4 -81 -17 -120 -29 -95 -28 -183 -41 -188 -27 -2
6 -17 -1 -35 -15 -17 -15 -47 -30 -67 -33 -20 -4 -63 -25 -97 -47 -34 -21 -65
-39 -70 -39 -4 0 -8 15 -8 34 0 55 -17 50 -23 -7 -7 -58 -33 -100 -66 -105
-16 -3 -25 5 -36 32 -23 54 -71 103 -120 121 -48 19 -81 11 -50 -12 11 -7 29
-13 42 -13 41 0 94 -106 63 -125 -6 -3 -15 6 -20 20 -11 30 -33 24 -28 -8 3
-28 -46 -82 -67 -73 -8 3 -15 12 -15 21 0 21 -9 19 -30 -7 -15 -18 -21 -20
-31 -11 -10 10 -9 16 1 28 12 15 11 16 -15 13 -23 -2 -31 -10 -39 -36 -8 -30
-12 -33 -35 -26 -32 8 -24 8 -143 6 -93 -2 -99 -3 -131 -32 -19 -16 -46 -34
-60 -39 -18 -7 -27 -18 -27 -31 0 -16 -4 -20 -19 -15 -14 4 -25 -3 -41 -25
-22 -30 -55 -40 -62 -18 -3 8 -11 7 -28 -5 -14 -9 -32 -17 -41 -17 -9 0 -24
-11 -33 -25 -16 -25 -146 -115 -166 -115 -11 0 -170 -121 -189 -144 -7 -8 -25
-18 -42 -21 -16 -4 -59 -34 -96 -67 -65 -58 -71 -67 -120 -187 l-52 -126 -1
-127 c0 -140 -13 -260 -35 -327 -8 -25 -15 -70 -15 -102 0 -55 -15 -89 -41
-89 -5 0 -9 -23 -9 -52 0 -71 -21 -228 -30 -228 -14 0 -30 -62 -30 -119 0 -80
-24 -120 -91 -152 -29 -14 -62 -24 -72 -21 -31 8 -4 -32 39 -57 31 -19 35 -25
29 -49 -3 -15 -25 -55 -48 -90 -40 -61 -43 -63 -74 -57 -18 3 -33 2 -33 -3 0
-23 31 -44 90 -60 77 -21 83 -38 23 -67 -23 -11 -42 -22 -43 -25 0 -3 23 -23
52 -44 l52 -39 -27 -23 c-15 -13 -27 -28 -27 -33 0 -6 -18 -20 -40 -31 -21
-11 -48 -30 -59 -41 -12 -14 -26 -19 -37 -15 -13 5 -15 2 -10 -21 7 -27 33
-82 57 -122 11 -17 10 -22 -11 -39 l-23 -19 37 -34 c21 -19 44 -46 52 -61 8
-15 26 -33 41 -40 15 -7 29 -21 31 -31 5 -25 -39 -22 -98 8 -52 26 -91 25 -68
-2 22 -27 68 -44 123 -44 61 -1 67 -5 58 -38 -4 -18 -11 -22 -30 -18 -19 4
-27 -1 -34 -21 -6 -15 -8 -37 -4 -49 4 -16 1 -23 -10 -23 -8 0 -15 -5 -15 -10
0 -7 13 -8 35 -4 30 5 36 3 46 -19 14 -31 6 -57 -17 -57 -9 0 -32 -7 -51 -16
-25 -13 -33 -22 -31 -38 3 -19 11 -22 83 -26 48 -3 88 -11 101 -20 54 -40 114
-95 114 -106 0 -16 -47 -49 -83 -58 -35 -8 -27 -23 28 -47 23 -10 48 -26 55
-34 11 -13 7 -15 -29 -15 -29 0 -41 -4 -41 -15 0 -20 34 -37 100 -50 66 -14
78 -39 33 -75 -23 -18 -36 -21 -70 -16 -49 6 -54 -4 -19 -39 31 -31 79 -39
162 -26 37 6 70 8 72 6 2 -2 0 -21 -5 -42 -7 -30 -16 -42 -46 -56 -20 -9 -37
-19 -37 -21 0 -2 7 -17 15 -32 27 -53 10 -117 -35 -132 -37 -13 -45 -4 -20 23
27 29 43 84 27 91 -19 7 -92 -22 -89 -35 1 -7 8 -32 14 -56 9 -33 9 -50 0 -69
-21 -46 -38 -31 -50 41 -6 36 -15 70 -20 75 -12 12 -142 -41 -199 -80 -22 -15
-72 -49 -112 -75 -72 -49 -101 -86 -101 -132 0 -14 -5 -25 -11 -25 -8 0 -7 -5
1 -15 7 -9 13 -34 12 -55 -2 -34 1 -40 18 -40 16 0 20 7 20 30 0 25 4 30 25
30 14 0 25 -4 25 -10 0 -5 5 -10 10 -10 6 0 10 15 10 33 1 45 21 70 53 62 20
-5 27 -2 32 14 9 29 23 26 36 -5 9 -24 11 -25 27 -11 51 45 102 14 102 -63 0
-39 3 -49 20 -53 15 -4 20 0 20 16 0 58 70 115 109 90 11 -7 22 -6 38 4 20 14
23 13 29 -1 3 -9 3 -28 0 -42 -5 -20 -3 -27 12 -31 17 -4 19 -13 18 -74 -2
-59 -6 -75 -32 -111 -16 -24 -38 -44 -48 -46 -17 -4 -18 1 -12 43 7 44 7 46
-13 36 -30 -17 -41 -13 -52 16 l-10 28 -18 -23 -17 -23 -24 27 c-43 47 -95 63
-193 61 -83 -2 -90 -4 -110 -28 -12 -15 -31 -31 -43 -37 -30 -16 -40 -102 -17
-146 21 -40 63 -96 73 -96 4 0 -2 19 -13 42 -24 47 -29 140 -10 159 9 9 19 9
44 -4 29 -14 35 -14 66 1 27 13 38 14 53 4 11 -7 31 -12 44 -12 35 0 56 -10
56 -27 0 -12 8 -14 34 -9 25 5 39 1 57 -13 l24 -19 -23 -46 c-33 -68 -27 -124
8 -81 22 26 43 19 36 -12 -5 -21 -4 -24 4 -13 5 8 10 23 10 32 0 10 9 22 20
28 11 6 34 35 51 65 16 29 37 59 44 65 8 7 15 21 15 32 0 11 13 35 28 53 39
43 46 103 24 191 l-17 68 -62 14 c-70 17 -94 13 -147 -23 -53 -36 -78 -37 -90
-2 -9 26 -8 31 17 49 15 11 27 26 27 34 0 19 36 18 71 -3 28 -17 29 -17 62 15
18 18 38 32 44 32 6 0 23 -14 38 -31 25 -31 27 -32 67 -20 50 15 102 64 94 88
-18 60 -18 73 -2 73 19 0 46 -50 46 -85 0 -38 -27 -95 -44 -95 -20 0 -20 -8 0
-56 20 -48 18 -46 36 -39 9 4 21 26 28 50 15 53 37 76 51 54 5 -8 9 -22 9 -31
0 -9 4 -19 10 -23 9 -6 18 2 65 60 l24 30 1 -41 c0 -56 -38 -97 -89 -92 -21 2
-36 -2 -39 -10 -2 -8 9 -12 38 -12 42 0 42 0 37 -30 -8 -37 8 -40 20 -4 7 22
15 26 56 29 l47 3 0 -33 c0 -18 7 -38 15 -45 8 -7 15 -23 15 -36 0 -21 -5 -24
-40 -24 -22 0 -40 5 -40 10 0 6 -5 10 -10 10 -6 0 -8 -11 -4 -27 9 -38 14 -41
26 -20 14 26 41 2 34 -29 -5 -17 -1 -24 16 -30 13 -4 46 -24 74 -45 28 -22 68
-45 90 -52 27 -10 39 -20 39 -33 0 -12 -6 -18 -19 -17 -13 1 -15 -2 -7 -10 30
-30 -8 -77 -61 -77 -16 0 -28 -5 -28 -10 0 -16 33 -26 38 -12 2 7 8 12 14 12
14 0 3 -92 -14 -120 -17 -27 -54 -36 -75 -19 -9 8 -33 51 -54 95 -25 57 -48
90 -73 109 -55 42 -47 55 19 29 20 -7 20 -7 1 14 -11 12 -26 22 -35 22 -9 0
-45 -30 -80 -65 -78 -79 -136 -109 -211 -111 -31 0 -66 -6 -78 -13 -43 -23
-40 -6 9 62 53 72 113 113 128 89 5 -9 18 2 39 35 25 37 28 49 17 51 -18 4
-21 82 -4 113 8 15 7 24 -2 36 -11 13 -10 18 6 29 10 8 22 14 26 14 4 0 9 20
11 45 3 37 0 44 -12 39 -8 -3 -26 -10 -40 -15 -21 -8 -29 -23 -48 -87 -12 -43
-22 -86 -22 -96 0 -9 -11 -32 -24 -49 -13 -18 -43 -72 -67 -121 -52 -106 -108
-171 -180 -210 -60 -33 -133 -41 -152 -16 -9 11 -32 15 -82 16 -121 1 -192 57
-270 213 -22 44 -43 80 -48 81 -8 0 -1 -83 14 -176 17 -95 35 -111 157 -133
146 -26 153 -38 27 -42 -62 -2 -88 2 -115 16 -19 10 -71 30 -115 45 -72 24
-81 30 -91 60 -10 32 -11 32 -17 9 -4 -13 -7 -57 -7 -96 0 -87 12 -93 60 -33
38 48 50 50 50 10 0 -61 -25 -89 -103 -114 -15 -5 -17 -13 -11 -58 8 -61 8
-62 28 -55 8 3 22 31 31 62 18 60 28 66 55 33 15 -19 22 -21 37 -12 19 12 22
57 8 127 -6 30 -5 37 8 37 23 0 57 -49 57 -82 0 -65 -40 -118 -90 -118 -12 0
-24 -9 -30 -24 -10 -26 -56 -66 -76 -66 -8 0 -14 -10 -14 -22 0 -38 42 -168
55 -168 6 0 24 14 40 30 49 51 72 32 40 -31 -11 -20 -26 -32 -46 -36 l-31 -6
7 -81 c10 -115 15 -120 63 -67 42 46 72 51 72 10 0 -41 -33 -79 -83 -97 l-49
-17 7 -40 c3 -21 8 -41 10 -43 11 -12 44 13 55 41 26 70 30 78 47 84 10 4 31
22 47 40 16 18 34 33 40 33 13 0 51 98 42 108 -3 3 -6 0 -6 -7 0 -8 -7 -10
-20 -6 -11 3 -20 2 -20 -3 0 -14 -75 -42 -111 -42 -32 0 -79 38 -79 64 0 11 8
13 34 9 48 -8 101 13 130 50 28 35 41 30 41 -16 0 -25 4 -32 20 -33 11 0 28 7
37 17 9 9 40 25 68 35 49 18 130 76 130 94 0 4 -7 11 -16 14 -10 4 -18 -3 -25
-22 -17 -50 -92 -77 -140 -52 -32 18 -23 40 15 40 19 0 41 7 50 15 14 15 36
75 36 103 0 19 18 14 30 -8 8 -15 21 -20 50 -20 l40 0 0 55 c0 51 -10 69 -25
45 -8 -13 -71 -13 -96 0 -39 21 -21 37 49 44 37 3 81 9 98 12 37 7 44 -8 44
-103 0 -66 3 -69 48 -57 12 4 22 14 22 25 0 10 7 22 15 26 13 8 11 14 -11 43
-20 27 -25 44 -22 77 3 37 1 42 -17 40 -34 -3 -27 27 17 82 63 78 114 100 257
108 88 5 110 9 93 16 -31 14 -27 24 15 38 36 11 37 11 72 -28 20 -21 41 -48
48 -59 11 -17 12 -18 12 -1 1 10 -20 40 -45 67 -47 50 -50 70 -10 70 28 0 46
-20 81 -90 31 -63 82 -130 97 -130 6 0 -1 15 -15 33 -24 32 -137 216 -137 223
0 2 8 4 19 4 33 0 68 -38 91 -99 12 -33 37 -77 54 -98 58 -68 72 -109 34 -97
-23 7 -23 6 -4 -15 17 -19 20 -41 14 -96 -3 -16 4 -21 35 -23 21 -2 40 -9 41
-15 24 -88 28 -93 67 -105 21 -7 47 -12 58 -12 11 0 23 -5 26 -10 4 -7 13 -6
27 1 17 9 24 8 33 -5 11 -15 14 -14 28 6 16 23 17 23 32 4 34 -44 8 -88 -29
-50 -19 18 -21 5 -3 -18 6 -9 22 -18 35 -20 36 -5 26 -23 -14 -26 -28 -3 -43
2 -64 23 -19 18 -36 25 -51 23 -23 -4 -23 -5 6 -17 23 -10 26 -14 15 -21 -20
-13 -57 -12 -80 0 -13 7 -27 7 -43 -1 -18 -8 -30 -8 -46 0 -32 18 -25 31 16
31 29 0 34 3 25 12 -7 7 -12 19 -12 28 0 9 -13 21 -30 27 -34 13 -37 8 -13
-19 19 -21 4 -24 -30 -6 -30 16 -46 39 -47 66 0 27 8 28 26 5 13 -17 13 -17
14 0 0 10 7 20 15 23 23 9 9 22 -19 17 -20 -4 -26 1 -36 31 -6 20 -15 36 -19
36 -12 0 -22 -74 -11 -78 6 -2 10 -12 10 -23 0 -11 7 -36 15 -56 8 -20 13 -38
11 -40 -2 -3 -19 3 -36 12 -30 15 -32 20 -27 56 4 34 2 39 -14 39 -15 0 -19 7
-19 35 0 19 -2 35 -5 35 -23 0 -68 -37 -85 -70 -21 -42 -29 -47 -46 -30 -12
12 -47 2 -39 -10 3 -5 25 -12 50 -16 54 -8 69 -24 61 -64 -5 -27 -3 -30 18
-30 14 0 31 -3 40 -6 19 -7 21 -45 4 -62 -8 -8 -8 -15 1 -25 9 -12 6 -18 -13
-31 -67 -43 -192 -42 -238 3 -23 23 -101 74 -88 58 3 -3 39 -41 81 -85 97
-100 124 -142 145 -221 29 -116 -2 -203 -82 -229 -46 -15 -423 -72 -474 -72
-50 0 -80 10 -80 27 0 8 -10 32 -22 53 l-23 39 23 23 c28 30 28 34 -4 75 -30
40 -40 41 -78 8 -16 -14 -33 -25 -37 -25 -20 0 -18 23 5 50 14 17 28 46 32 64
6 34 -8 76 -26 76 -5 0 -25 -35 -45 -77 -29 -63 -33 -78 -21 -85 35 -20 25
-117 -15 -139 -31 -16 -39 -2 -23 37 16 37 11 74 -9 74 -21 0 -120 -54 -125
-68 -4 -13 122 -76 203 -102 22 -7 53 -19 70 -28 l29 -15 -28 -23 c-31 -27
-76 -32 -76 -9 0 33 -31 27 -76 -15 -28 -26 -51 -39 -60 -36 -9 3 -18 6 -20 6
-12 0 -1 41 16 63 26 33 26 34 -15 51 -26 11 -35 21 -35 38 0 24 -34 53 -51
43 -18 -11 -66 -119 -79 -175 -14 -62 -10 -130 5 -95 4 11 22 32 39 46 29 25
31 32 36 114 5 86 5 87 23 67 27 -29 32 -90 13 -155 -26 -88 -25 -88 66 -34
50 30 69 29 61 -2 -4 -14 3 -20 27 -25 54 -10 60 -8 80 39 11 25 24 45 31 45
6 0 19 10 30 23 l18 22 2 -35 c0 -19 5 -46 9 -60 7 -21 8 -19 9 17 1 50 9 73
25 73 7 0 12 -18 14 -43 1 -24 11 -64 22 -88 11 -24 18 -35 14 -24 -10 32 -17
122 -11 147 6 21 13 23 71 26 l65 3 -2 -43 c-2 -39 0 -43 24 -46 32 -4 81 35
99 78 8 19 20 30 33 30 18 0 19 -5 14 -47 -4 -38 -12 -54 -41 -80 -43 -40 -78
-49 -128 -36 -21 6 -41 7 -43 2 -3 -4 4 -30 15 -58 22 -57 13 -67 -20 -20 -37
51 -34 24 3 -33 60 -90 71 -129 33 -115 -7 3 -20 23 -27 44 -10 32 -40 81 -71
118 -5 6 9 -30 32 -78 23 -48 39 -95 37 -105 -3 -12 -9 -5 -21 22 -16 35 -98
163 -114 176 -3 3 10 -22 28 -55 82 -145 93 -179 71 -214 -7 -11 -12 -4 -20
25 -6 22 -32 71 -57 109 -55 81 -83 141 -84 173 0 24 -18 30 -26 8 -3 -8 -25
-24 -48 -37 -36 -19 -47 -20 -74 -11 -17 6 -56 8 -86 5 -35 -4 -67 -1 -86 7
-27 11 -34 11 -47 -2 -20 -20 -10 -38 44 -77 46 -33 53 -36 53 -22 0 5 5 22
10 36 9 23 13 25 25 15 28 -23 14 -74 -20 -75 -5 0 -9 -16 -7 -35 3 -39 -37
-106 -83 -136 -27 -17 -34 -37 -11 -28 8 3 19 -3 25 -15 13 -24 14 -71 2 -71
-10 0 -46 42 -55 63 -3 7 -16 -1 -36 -22 -34 -36 -35 -68 -3 -103 22 -25 30
-23 66 17 32 35 97 59 97 36 0 -6 5 -11 10 -11 6 0 10 7 10 15 0 8 -9 15 -19
15 -33 0 -34 19 -6 61 22 33 31 40 50 35 17 -4 24 -1 28 15 4 16 11 20 27 16
19 -5 21 -3 15 20 -3 14 -22 46 -41 71 -36 47 -41 62 -23 62 13 0 66 -53 91
-90 9 -14 17 -20 17 -13 1 6 -17 33 -39 58 -47 54 -70 95 -70 125 0 36 21 18
86 -76 100 -142 124 -234 73 -280 -18 -16 -20 -16 -33 1 -12 17 -15 18 -30 3
-9 -9 -32 -22 -51 -28 -19 -6 -35 -16 -35 -21 0 -21 53 -91 83 -109 39 -24 68
-25 108 -4 39 20 69 10 69 -23 0 -28 58 -93 84 -93 25 0 19 -32 -14 -70 -16
-19 -29 -42 -29 -50 -1 -8 37 25 84 74 47 49 88 86 92 82 10 -10 70 -260 77
-323 4 -32 2 -82 -4 -112 -7 -39 -7 -58 1 -67 26 -31 -26 -134 -66 -134 -8 0
-15 -4 -15 -8 0 -5 -16 -34 -35 -67 -20 -32 -33 -60 -30 -63 3 -3 6 -3 8 -1 2
2 30 38 64 79 168 209 219 363 166 506 -18 47 -20 49 -56 49 -41 1 -57 15 -57
54 0 24 -1 24 62 4 16 -5 17 1 12 56 -11 100 39 192 111 207 l30 6 -5 -99
c-11 -223 21 -434 109 -704 28 -86 51 -159 51 -162 0 -3 -8 -8 -17 -10 -14 -4
-13 -5 4 -6 15 -1 31 -19 58 -67 20 -36 34 -68 31 -71 -3 -3 -27 -16 -53 -28
l-48 -23 68 5 c79 7 84 -1 38 -63 -52 -72 -63 -78 -119 -64 -49 13 -102 8
-102 -10 0 -5 19 -8 41 -7 26 1 44 -3 46 -10 3 -8 -4 -13 -15 -13 -13 0 -22
-10 -29 -32 -8 -29 -13 -33 -41 -31 -28 1 -32 -2 -27 -18 5 -14 0 -22 -21 -29
-62 -24 -132 24 -125 86 1 13 45 34 72 34 17 0 20 4 14 29 -6 30 -10 28 108
82 38 17 40 19 15 19 -16 0 -28 6 -28 13 0 8 -23 12 -82 12 -46 0 -101 4 -123
9 -59 13 -32 -7 47 -34 38 -13 68 -28 68 -34 -1 -27 -39 -78 -70 -94 -18 -9
-38 -24 -43 -33 -16 -27 9 -73 54 -98 21 -12 39 -26 39 -31 0 -14 -61 -60
-114 -86 -51 -25 -51 -25 -65 -4 -17 25 -55 26 -127 4 -28 -10 -59 -14 -68
-11 -23 9 -21 69 4 92 11 10 20 29 20 42 0 36 -36 30 -62 -12 -25 -38 -46 -49
-72 -39 -13 5 -16 13 -11 33 22 88 22 88 -45 120 -81 40 -90 48 -90 83 0 25 3
29 18 23 50 -21 71 15 31 51 -24 21 -24 21 -2 -33 7 -18 -15 -16 -33 2 -21 21
-34 19 -34 -6 0 -15 -5 -19 -16 -15 -11 4 -14 1 -10 -12 3 -9 12 -44 20 -78
46 -181 140 -361 212 -403 46 -27 53 -27 124 9 79 40 87 39 95 -12 4 -24 13
-68 21 -99 28 -113 33 -182 18 -260 -16 -81 -18 -455 -2 -465 4 -3 8 0 8 5 0
6 8 11 18 11 10 0 25 11 32 25 29 54 70 17 70 -63 0 -20 6 -48 13 -62 14 -29
42 -38 50 -17 4 11 0 13 -15 9 -15 -4 -19 -1 -16 9 3 8 14 13 25 12 15 -2 23
6 29 29 5 17 19 37 32 46 21 14 23 13 37 -21 8 -20 15 -60 16 -89 0 -51 1 -52
16 -31 8 13 19 23 24 23 18 0 8 -32 -17 -57 -22 -22 -25 -32 -21 -66 6 -41 31
-77 44 -63 4 4 10 33 13 63 6 65 26 81 36 29 8 -45 1 -73 -31 -120 -25 -36
-25 -40 -14 -98 l12 -60 20 21 c16 15 22 37 25 86 5 71 14 82 31 34 15 -43 -3
-111 -40 -150 -18 -20 -29 -42 -30 -67 -4 -58 0 -92 11 -92 12 0 55 85 65 127
3 18 11 33 16 33 13 0 11 -97 -2 -123 -16 -31 -61 -77 -75 -77 -19 0 -26 -114
-14 -260 6 -74 13 -183 17 -242 3 -60 10 -108 15 -108 19 0 39 77 53 203 7 73
19 146 25 162 11 29 57 85 70 85 9 0 36 -59 45 -98 12 -56 82 -70 135 -26 28
24 90 117 90 137 0 5 -10 5 -22 2 -15 -6 -20 -4 -15 6 5 14 67 173 114 292 14
37 32 67 40 67 7 0 13 -5 13 -12 0 -6 6 -3 14 8 13 17 12 21 -5 37 -25 24 -20
41 14 45 15 2 31 11 36 21 8 14 5 16 -22 13 -52 -6 -67 21 -77 130 -6 57 -21
130 -40 188 -18 52 -34 118 -37 146 -6 55 -5 56 81 206 15 27 23 48 17 48 -7
0 -14 -7 -17 -15 -26 -66 -34 95 -9 166 22 62 58 104 110 129 50 24 66 20 46
-11 -19 -31 -2 -38 21 -9 25 30 62 111 114 248 22 56 48 115 60 129 23 29 48
32 144 19 50 -7 65 -5 135 24 108 43 176 49 235 18 46 -23 90 -77 90 -108 0
-16 -12 -18 -112 -17 -116 1 -202 -13 -250 -41 -45 -26 -32 -32 26 -12 78 26
187 41 253 34 64 -7 117 -29 108 -44 -4 -6 5 -10 19 -10 35 0 68 -52 106 -165
30 -89 66 -162 76 -152 3 3 -4 23 -15 46 -12 22 -21 47 -21 55 0 44 60 18 83
-36 33 -77 108 -322 105 -346 -5 -44 -25 -35 -43 20 -20 62 -52 103 -41 53 13
-57 144 -300 181 -335 38 -36 33 -65 -17 -92 -36 -19 -58 -23 -133 -22 -81 0
-101 5 -195 41 -57 22 -106 45 -108 51 -1 5 12 13 30 17 23 5 27 9 15 12 -30
8 -86 -18 -155 -70 -37 -28 -83 -60 -102 -69 -40 -21 -145 -25 -156 -6 -10 16
-5 104 7 136 12 32 2 43 -17 18 -8 -12 -14 -43 -14 -77 0 -51 -3 -60 -27 -77
-16 -11 -44 -50 -63 -87 -33 -65 -70 -105 -95 -105 -8 0 -16 22 -20 62 -8 64
-8 64 40 96 16 11 65 110 65 132 0 34 -16 22 -29 -20 -14 -46 -65 -110 -88
-110 -9 0 -22 8 -29 18 -12 15 -13 13 -3 -13 22 -63 31 -137 39 -335 6 -163
12 -222 30 -288 14 -51 27 -81 34 -80 7 2 24 -10 38 -26 l25 -30 61 26 c33 15
63 24 66 21 9 -9 -26 -53 -55 -69 -36 -18 -64 -18 -94 2 -39 26 -45 10 -25
-64 31 -109 46 -147 54 -134 10 16 56 16 52 0 -3 -7 -7 -26 -11 -42 -5 -22
-10 -27 -25 -23 -13 3 -20 0 -20 -9 0 -8 6 -14 14 -14 24 0 53 47 60 97 4 27
10 57 13 68 5 19 4 19 -19 -2 -23 -22 -78 -32 -78 -14 0 8 76 41 97 41 6 0 14
9 18 19 5 18 33 36 42 27 2 -2 12 -44 22 -93 10 -49 30 -111 44 -139 l26 -49
1 45 c1 62 29 119 80 163 24 20 47 37 52 37 13 0 9 -17 -7 -30 -13 -11 -13
-15 -3 -21 8 -6 19 -1 28 12 15 19 16 15 16 -53 -1 -83 12 -115 70 -171 51
-49 88 -64 119 -47 36 19 43 4 12 -28 -30 -31 -34 -44 -12 -36 9 4 15 1 15 -7
0 -8 9 -4 23 9 25 24 37 20 37 -10 0 -10 4 -18 9 -18 6 0 7 16 4 35 -3 19 -2
35 2 35 5 0 24 -17 44 -37 20 -21 57 -52 83 -70 60 -41 82 -82 82 -155 1 -47
-4 -64 -29 -99 -58 -83 -177 -115 -264 -72 -25 13 -41 16 -41 9 1 -19 26 -46
44 -46 18 0 22 -20 6 -36 -6 -6 12 -63 49 -159 75 -195 88 -220 106 -205 18
15 38 3 30 -19 -4 -9 -3 -12 3 -6 11 13 38 108 47 164 7 39 5 43 -10 37 -29
-11 -55 3 -55 30 0 22 4 24 35 22 19 -1 37 1 41 5 4 4 -2 7 -12 7 -30 0 -45
19 -33 42 8 14 17 18 34 14 22 -6 24 0 55 127 18 72 41 149 51 169 24 47 24
48 -7 48 -32 0 -59 57 -49 107 7 39 54 96 107 129 43 28 60 30 52 9 -11 -28
13 -15 41 20 21 29 30 34 41 24 15 -12 17 -7 15 27 -2 24 24 51 34 34 3 -5 11
-10 17 -10 7 0 0 12 -14 27 -14 16 -34 44 -43 63 -23 46 -22 46 -42 28 -12
-10 -48 -17 -108 -21 -57 -3 -119 -14 -170 -31 -97 -31 -95 -31 -95 -5 0 56
26 83 167 173 43 27 41 36 -6 36 -45 0 -77 23 -87 63 -6 27 -6 28 33 21 33 -5
51 -1 99 25 33 17 65 31 72 31 18 0 15 -35 -8 -72 -25 -42 -26 -57 -1 -27 11
13 23 21 27 16 4 -4 -17 -32 -46 -62 -30 -30 -49 -55 -43 -55 7 0 15 5 18 10
3 6 18 10 33 10 16 0 44 13 65 31 37 31 38 31 44 10 3 -11 9 -21 14 -21 5 0 6
7 3 15 -4 8 -1 15 5 15 6 0 11 -4 11 -10 0 -5 5 -10 12 -10 9 0 9 3 0 12 -21
21 -13 31 20 24 35 -7 78 -42 78 -63 0 -7 5 -13 10 -13 6 0 10 19 10 43 0 23
5 58 10 77 6 19 19 83 29 141 11 58 28 123 38 145 11 21 28 72 38 112 19 74
62 141 82 129 6 -4 14 -37 18 -74 4 -36 12 -77 18 -90 23 -50 75 -14 102 71
18 56 46 93 63 82 10 -6 54 -175 71 -271 5 -27 9 -41 10 -30 2 35 -39 267 -52
293 -31 63 -66 51 -93 -31 -22 -69 -40 -97 -64 -97 -21 0 -26 13 -35 85 -12
103 -15 114 -35 120 -27 9 -25 37 5 65 37 35 49 80 36 141 -6 27 -11 70 -11
94 0 25 -2 45 -5 45 -3 0 -26 -15 -52 -33 -80 -56 -148 -79 -247 -85 -97 -5
-105 3 -36 38 65 33 151 115 262 250 32 39 38 42 53 30 10 -8 15 -23 12 -37
-2 -12 0 -24 5 -25 6 -2 12 -25 15 -51 5 -39 8 -45 19 -36 19 15 18 32 -7 116
-21 69 -21 75 -5 116 26 68 20 126 -25 263 -41 123 -47 177 -25 227 27 59
-102 -58 -146 -133 -45 -79 -75 -186 -82 -300 -4 -58 -9 -121 -12 -140 -4 -28
-3 -32 6 -18 6 10 20 80 31 155 30 206 64 307 126 365 20 19 25 20 33 8 5 -8
10 -34 10 -57 0 -23 4 -44 9 -48 5 -3 13 -20 16 -38 4 -17 14 -45 23 -62 8
-16 15 -42 14 -57 0 -15 4 -30 9 -33 14 -9 10 -55 -10 -113 -13 -37 -31 -64
-60 -88 -23 -20 -68 -71 -101 -114 -89 -116 -141 -155 -226 -167 -41 -5 -46
-4 -42 13 2 10 13 24 26 30 29 14 61 44 74 68 7 12 -6 5 -33 -17 -60 -52 -105
-64 -153 -42 -20 9 -36 21 -36 25 0 4 13 27 29 51 17 24 27 46 24 49 -3 3 -8
-1 -10 -7 -9 -26 -25 -13 -19 15 7 26 6 26 -13 -6 -23 -36 -46 -43 -38 -12 3
11 1 20 -4 20 -5 0 -9 6 -9 14 0 8 -5 16 -11 18 -7 2 -12 31 -13 69 -1 45 -7
75 -20 94 -26 40 -16 96 32 180 47 81 64 127 40 108 -8 -7 -17 -10 -21 -7 -7
8 17 75 45 126 16 28 19 41 11 46 -9 6 -9 34 -2 111 5 57 12 108 15 112 3 5 1
9 -3 9 -5 0 -19 -63 -31 -140 -13 -77 -32 -165 -44 -195 -21 -55 -66 -105 -94
-105 -8 0 -50 36 -93 79 -79 81 -84 97 -23 85 40 -8 70 21 87 85 7 29 21 62
31 72 16 18 16 19 -3 19 -27 0 -34 19 -40 116 -7 99 12 148 85 227 61 64 67
83 48 148 -14 46 -14 54 0 81 19 37 0 35 -29 -4 -19 -25 -19 -26 2 -66 12 -23
21 -47 21 -55 0 -7 -26 -51 -59 -98 -32 -46 -61 -94 -65 -106 -4 -13 -14 -23
-22 -23 -8 0 -14 -4 -14 -9 0 -4 -11 -6 -25 -3 -14 2 -25 8 -25 13 0 5 -7 9
-15 9 -17 0 -20 -16 -5 -25 6 -3 10 -14 10 -23 -1 -14 -4 -13 -20 7 -16 19
-20 20 -20 6 0 -26 -33 -13 -44 18 -7 19 -6 40 3 70 16 52 30 140 24 147 -11
11 -72 -71 -79 -105 -12 -65 9 -107 111 -216 109 -116 125 -151 105 -224 l-13
-45 -57 0 -57 0 -55 73 -55 72 10 63 c14 83 -1 155 -53 252 -121 227 -125 237
-125 340 0 52 3 111 7 130 7 34 7 33 -14 -10 -17 -34 -22 -64 -23 -125 0 -79
1 -82 68 -221 58 -121 69 -151 74 -212 4 -46 2 -72 -4 -72 -6 0 -36 12 -68 26
-48 22 -67 26 -119 22 -33 -3 -89 -17 -123 -32 -69 -29 -89 -31 -188 -21 l-71
7 -29 -33 c-17 -19 -37 -45 -45 -58 l-16 -23 -34 28 c-67 57 -110 194 -110
356 0 146 34 281 84 327 14 13 28 36 31 51 16 73 155 120 206 69 36 -36 5
-116 -41 -107 -20 4 -26 38 -6 38 9 0 16 5 16 11 0 18 -55 5 -58 -14 -5 -25
26 -57 54 -57 48 0 87 76 63 122 -19 36 -40 47 -88 48 -172 1 -291 -221 -291
-547 0 -159 15 -258 56 -365 19 -48 34 -105 34 -127 0 -38 -3 -42 -62 -82 -35
-23 -78 -56 -96 -73 l-33 -31 -20 24 c-26 31 -24 45 12 121 43 91 39 159 -15
247 -35 56 -38 68 -33 108 8 57 -8 134 -37 177 -28 43 -91 78 -140 78 -32 0
-46 -7 -81 -43 -90 -89 -63 -187 50 -187 40 0 71 -33 81 -86 3 -19 14 -40 24
-47 10 -7 29 -30 41 -52 19 -32 24 -54 24 -117 0 -100 -17 -121 -39 -46 -9 33
-27 65 -46 83 -28 27 -38 30 -99 30 -59 0 -73 -4 -111 -30 -24 -16 -65 -59
-93 -95 l-50 -65 7 40 c3 22 9 77 13 122 7 93 -4 121 -54 142 -21 9 -33 25
-46 62 l-18 50 48 56 c28 33 65 63 89 74 23 9 50 30 60 45 21 30 44 52 122
121 50 44 118 143 188 272 16 30 51 78 77 108 27 29 84 116 127 193 43 77 121
199 173 272 52 73 116 174 142 223 76 141 92 164 190 265 54 55 104 117 119
147 34 68 114 134 283 234 169 101 193 112 345 164 90 31 130 41 133 32 2 -7
6 -113 9 -237 7 -320 39 -558 101 -776 36 -122 89 -229 180 -359 43 -60 107
-155 142 -210 44 -67 99 -133 167 -200 79 -79 125 -135 211 -265 124 -188 198
-269 280 -306 62 -29 258 -83 320 -88 38 -3 40 -5 45 -42 l5 -39 13 36 c8 24
38 59 84 100 188 167 354 476 432 804 83 347 52 277 -74 -170 -37 -134 -141
-340 -220 -438 -156 -194 -296 -252 -444 -184 -32 15 -63 27 -70 27 -6 0 -40
13 -74 30 -92 43 -175 129 -295 304 -58 83 -135 187 -171 231 -37 44 -84 106
-104 138 -20 31 -71 92 -112 135 -155 161 -273 409 -334 701 -44 208 -77 663
-57 770 22 113 24 141 10 189 -27 99 -102 193 -194 247 -41 25 -60 29 -134 31
l-86 2 80 -26 c103 -35 163 -70 214 -128 45 -52 81 -136 81 -192 0 -44 -3 -46
-170 -93 -162 -46 -284 -96 -347 -144 -61 -45 -140 -125 -262 -262 -40 -46
-79 -83 -85 -83 -7 0 -23 24 -36 53 -27 58 -57 97 -77 97 -7 0 -22 18 -33 41
-12 23 -24 39 -27 36 -2 -3 0 -14 6 -25 9 -16 6 -31 -15 -71 -46 -88 -43 -232
7 -302 l19 -27 -37 -64 c-30 -53 -56 -92 -125 -192 -11 -17 -64 41 -87 94 -31
71 -44 180 -38 308 4 91 3 112 -8 112 -23 0 -64 22 -69 37 -11 27 4 32 40 15
34 -16 36 -16 50 3 8 10 14 29 14 42 0 39 26 78 82 124 63 52 97 90 98 106 0
15 63 60 67 47 12 -36 46 -74 70 -79 15 -4 35 -11 43 -16 42 -27 98 -49 126
-49 33 0 84 33 71 46 -4 4 -17 -2 -30 -14 -23 -22 -39 -21 -99 3 -26 10 -22
25 6 25 13 0 49 13 79 29 31 16 64 28 74 28 12 -2 26 13 43 45 20 39 30 48 51
48 15 0 37 9 50 21 21 18 21 20 4 13 -11 -4 -32 -9 -47 -12 -23 -3 -28 -1 -28
15 0 11 12 30 26 44 58 53 66 125 19 169 -25 24 -55 21 -55 -5 0 -25 -30 -18
-30 8 -1 20 -12 56 -35 111 -8 17 -5 19 23 13 35 -7 39 -1 19 25 -9 11 -31 18
-63 20 -44 3 -49 6 -52 28 -5 51 6 54 121 30 59 -12 112 -20 118 -18 6 2 -29
16 -77 30 -49 15 -174 56 -279 92 -145 50 -195 71 -210 90 -12 15 -30 26 -41
26 -11 0 -31 12 -45 26 -13 14 -43 35 -66 46 -24 11 -43 24 -43 28 0 4 -19 15
-43 24 -49 19 -116 83 -144 140 l-20 38 -21 -27 c-27 -35 -28 -60 -1 -109 25
-47 16 -61 -17 -23 -44 51 -27 167 24 167 7 0 12 16 12 40 0 22 2 40 5 40 22
0 82 -45 155 -115 47 -45 105 -92 128 -104 92 -47 25 28 -123 139 -52 39 -112
91 -134 117 -42 46 -81 134 -81 179 l0 26 48 -36 c178 -134 325 -237 330 -232
15 15 -65 87 -164 147 -175 107 -246 202 -319 428 -29 89 -27 128 10 176 19
26 30 10 40 -59 11 -83 61 -119 67 -48 4 52 36 55 88 8 22 -20 44 -36 48 -36
5 0 19 -25 31 -56 44 -106 153 -190 336 -259 148 -56 214 -66 473 -74 137 -5
261 -4 285 1 23 5 110 13 192 18 171 10 286 38 397 97 76 40 109 74 178 185
27 42 61 84 75 94 l28 18 29 -37 c36 -44 68 -50 68 -11 0 28 -2 27 62 7 14 -4
17 1 15 23 -2 24 2 29 24 32 46 5 54 -18 34 -101 -9 -39 -29 -93 -43 -119 -32
-61 -121 -146 -195 -188 -32 -18 -62 -40 -67 -50 -5 -9 -43 -59 -85 -110 -98
-120 -123 -164 -137 -240 -14 -80 -2 -141 58 -289 37 -90 48 -131 53 -196 3
-45 11 -89 17 -96 6 -8 21 -43 33 -79 23 -70 81 -170 166 -285 28 -38 77 -108
108 -155 62 -94 151 -208 247 -315 68 -76 256 -354 304 -450 17 -33 53 -130
82 -215 28 -85 55 -155 60 -155 13 0 20 82 12 139 -9 61 -61 172 -92 197 -13
10 -31 38 -41 61 -9 24 -34 61 -55 83 -21 22 -60 83 -85 135 -55 110 -84 149
-216 285 -127 131 -134 140 -227 286 -43 68 -104 159 -134 201 -66 91 -79 132
-52 159 11 10 79 43 153 73 275 114 431 242 431 353 0 104 -107 89 -275 -38
-65 -49 -151 -89 -192 -89 -39 0 -40 8 -21 119 8 49 9 76 1 92 -8 19 -4 37 25
96 l34 72 -17 45 c-19 49 -18 62 14 149 20 55 21 60 6 130 -23 110 -23 110 58
195 79 83 86 97 114 217 l18 80 92 0 c84 0 92 1 87 17 -10 31 14 19 25 -12 5
-16 14 -30 18 -30 20 0 75 61 69 76 -7 17 33 66 46 58 5 -3 8 -17 8 -32 1 -26
1 -26 15 -8 15 19 16 19 48 -12 18 -18 38 -32 45 -32 15 0 16 25 2 51 -14 26
-4 24 32 -6 30 -25 72 -33 83 -16 3 5 -9 23 -26 39 -35 33 -34 62 2 62 103 0
337 -127 447 -244 64 -67 85 -110 167 -336 144 -396 153 -621 37 -990 -92
-293 -112 -462 -77 -660 8 -47 20 -139 27 -205 8 -77 14 -105 16 -78 2 23 -4
95 -13 160 -9 65 -19 190 -22 278 -7 195 2 244 86 500 78 236 85 279 78 494
-4 144 -10 194 -30 272 -49 187 -199 526 -259 587 -43 43 -158 121 -231 157
-33 16 -68 40 -78 54 -11 13 -30 29 -42 35 -46 23 -26 86 40 127 34 21 35 21
102 4 38 -10 76 -15 85 -12 22 9 20 37 -2 37 -23 0 -53 31 -54 56 -3 39 13 73
43 95 30 21 32 21 81 5 28 -9 53 -14 56 -11 10 9 -32 34 -68 41 -81 14 -102
25 -97 50 3 16 0 24 -9 24 -25 0 -15 30 13 41 27 10 73 -4 73 -22 0 -4 7 -15
16 -23 20 -21 74 -21 74 -1 0 8 -6 15 -14 15 -25 0 -28 18 -6 40 18 18 28 20
64 15 48 -8 69 7 36 25 -11 6 -20 17 -20 25 0 13 39 50 61 57 17 6 -2 38 -22
38 -18 0 -69 43 -69 59 0 17 30 32 50 26 26 -8 25 -4 -5 31 -30 35 -31 41 -4
49 18 6 18 8 5 18 -17 13 -57 123 -48 132 3 3 15 5 27 5 12 0 30 6 40 14 18
13 17 15 -18 29 -66 28 -40 80 28 56 26 -10 41 -9 83 5 56 19 76 36 42 36 -18
0 -21 4 -16 23 4 19 0 26 -27 38 -27 12 -32 19 -30 44 1 16 -5 37 -13 46 -22
25 -10 53 42 96 24 21 44 40 44 44 0 4 -15 5 -34 2 -31 -5 -36 -2 -50 25 -23
44 -20 55 16 72 47 22 45 37 -4 45 -24 4 -51 11 -60 17 -25 12 -22 54 4 72
l21 15 -35 39 c-54 60 -59 132 -10 168 12 9 11 22 -11 95 -33 112 -73 277 -87
366 -8 47 -17 73 -27 77 -12 5 -14 15 -10 42 3 20 -1 75 -9 123 -8 47 -15 111
-14 141 1 88 -17 289 -34 365 -28 131 -77 252 -157 381 -25 42 -38 72 -34 84
4 13 -24 68 -89 173 -52 85 -103 170 -112 190 -9 19 -28 40 -41 46 -13 6 -32
30 -42 53 -10 24 -43 69 -72 102 -30 32 -58 65 -62 72 -12 21 -25 17 -29 -8
-5 -37 -37 -23 -98 42 -51 54 -59 59 -107 64 -42 4 -53 2 -53 -9 0 -28 -28
-15 -65 30 -38 47 -40 64 -19 137 4 13 -1 16 -23 13 -17 -2 -27 -8 -25 -16 10
-42 -30 -82 -41 -40 -3 12 -13 19 -31 19 -28 0 -32 -8 -14 -26 9 -9 9 -15 -1
-24 -10 -11 -22 -3 -62 40 -44 48 -49 58 -50 100 0 41 -2 44 -12 28 -7 -11
-27 -36 -45 -55 -18 -19 -30 -41 -28 -48 6 -15 1 -19 -45 -27 -32 -6 -37 -3
-47 19 -11 24 -14 25 -28 11 -18 -18 -30 -20 -39 -6 -3 6 -18 10 -32 10 -14 0
-41 11 -59 25 -18 14 -35 25 -38 25 -3 0 -6 -15 -6 -34 0 -43 -9 -49 -64 -41
-36 6 -46 12 -50 31 -10 37 10 64 44 64 38 0 38 15 1 34 -38 20 -95 26 -156
16z m100 -40 c9 -15 -28 -75 -46 -75 -10 0 -13 10 -11 35 2 19 6 38 9 43 6 11
41 9 48 -3z m530 -115 c10 -24 14 -52 11 -61 -12 -31 -39 9 -42 61 -4 57 10
58 31 0z m-555 15 c0 -5 -4 -10 -10 -10 -5 0 -10 5 -10 10 0 6 5 10 10 10 6 0
10 -4 10 -10z m190 -5 c0 -8 -4 -15 -10 -15 -5 0 -10 7 -10 15 0 8 5 15 10 15
6 0 10 -7 10 -15z m321 -85 c9 -31 10 -43 1 -52 -7 -7 -12 -8 -12 -2 0 5 -4
15 -9 23 -8 12 -12 12 -25 2 -25 -21 -32 12 -9 43 26 36 40 32 54 -14z m169
-20 c0 -5 -4 -10 -10 -10 -5 0 -10 5 -10 10 0 6 5 10 10 10 6 0 10 -4 10 -10z
m288 -89 c3 -8 -1 -12 -9 -9 -7 2 -15 10 -17 17 -3 8 1 12 9 9 7 -2 15 -10 17
-17z m-58 -31 c0 -5 -2 -10 -4 -10 -3 0 -8 5 -11 10 -3 6 -1 10 4 10 6 0 11
-4 11 -10z m-2320 -54 c0 -18 -30 -30 -43 -17 -9 9 11 23 41 30 1 1 2 -5 2
-13z m2500 -1 c7 -9 10 -18 7 -22 -8 -7 -37 15 -37 28 0 14 16 11 30 -6z m-80
-45 c0 -5 -4 -10 -10 -10 -5 0 -10 5 -10 10 0 6 5 10 10 10 6 0 10 -4 10 -10z
m-868 -49 c258 -13 349 -24 513 -60 72 -16 168 -36 213 -45 66 -11 116 -30
228 -86 124 -62 155 -82 218 -143 116 -114 191 -242 263 -452 42 -122 89 -352
102 -500 6 -60 20 -211 32 -335 31 -325 20 -456 -49 -598 -33 -69 -110 -154
-169 -189 -24 -14 -42 -28 -39 -30 9 -9 91 35 151 80 33 25 62 44 65 42 4 -2
3 -34 -1 -70 -8 -82 -60 -192 -119 -253 -62 -64 -42 -62 30 2 34 31 67 56 72
56 10 0 4 -42 -22 -150 -25 -102 -44 -144 -88 -193 -52 -57 -107 -179 -93
-205 13 -24 32 -32 76 -32 19 0 37 -4 40 -10 7 -11 -18 -61 -39 -80 -9 -7 -19
-30 -22 -51 -4 -21 -13 -40 -20 -43 -8 -3 -14 -14 -14 -24 0 -34 -33 -54 -102
-61 -3 -1 -16 -16 -27 -35 -12 -18 -29 -33 -38 -32 -10 0 -19 -9 -23 -24 -5
-20 -13 -26 -43 -28 -24 -2 -37 -8 -37 -18 0 -9 -11 -14 -30 -14 -16 0 -30 -4
-30 -10 0 -5 -7 -10 -15 -10 -8 0 -15 5 -15 10 0 14 -27 12 -33 -2 -3 -8 -9
-1 -16 15 -6 15 -15 27 -21 27 -5 0 -27 -22 -47 -49 -43 -56 -50 -60 -55 -29
-5 38 -28 33 -28 -6 0 -39 -17 -58 -22 -24 -5 33 -66 46 -120 25 -37 -15 -42
-15 -66 1 -15 9 -30 21 -34 26 -9 13 -17 -11 -15 -43 3 -31 -20 -40 -25 -9 -2
14 -12 24 -28 28 -15 4 -27 15 -31 30 -7 29 -28 28 -48 0 -7 -11 -20 -20 -28
-20 -7 0 -32 -9 -55 -21 -49 -25 -79 -19 -107 20 -20 28 -23 29 -49 16 -15 -7
-44 -17 -64 -20 -33 -6 -38 -5 -38 12 0 28 -8 33 -39 22 -22 -8 -36 -5 -74 17
-26 14 -53 34 -61 45 -10 15 -20 18 -45 13 -27 -6 -33 -3 -38 15 -7 26 -11 26
-36 4 -18 -17 -19 -17 -33 2 -14 19 -14 19 -30 -3 -18 -26 -31 -28 -56 -5 -17
15 -18 15 -18 0 0 -21 -14 -22 -30 -2 -7 8 -16 15 -21 15 -5 0 -9 -7 -9 -15 0
-8 -6 -15 -14 -15 -7 0 -19 7 -26 15 -16 19 -36 19 -44 0 -7 -19 -26 -20 -26
-1 0 27 -20 27 -30 0 -8 -19 -15 -25 -30 -21 -11 3 -23 1 -26 -4 -8 -14 -34
10 -34 31 0 10 -15 27 -34 38 l-33 20 -6 -56 c-9 -84 -47 -97 -47 -16 0 24 -3
44 -8 44 -4 0 -24 -14 -44 -30 -21 -17 -43 -28 -51 -24 -10 3 -20 -3 -27 -17
-10 -17 -14 -19 -21 -8 -6 10 -10 8 -17 -10 -13 -35 -61 -36 -74 -1 l-10 25
-13 -25 c-12 -22 -14 -23 -20 -7 -4 9 -5 29 -3 42 8 38 -7 30 -42 -24 -40 -64
-58 -79 -66 -57 -10 26 -33 18 -55 -19 -24 -40 -39 -38 -39 6 0 16 -3 29 -7
29 -5 0 -36 -16 -70 -34 l-62 -33 -30 18 c-17 10 -33 30 -37 44 -7 29 -6 28
-57 14 -20 -5 -44 -21 -53 -34 -11 -17 -26 -25 -44 -25 -23 0 -29 6 -38 39 -7
21 -19 44 -28 52 -13 11 -19 8 -39 -17 -13 -16 -25 -27 -27 -24 -1 3 -8 14
-14 25 -6 11 -33 27 -63 36 -50 14 -69 27 -100 65 -13 16 -15 16 -28 -1 -11
-16 -19 -17 -50 -9 -36 8 -38 12 -41 50 -3 39 -5 42 -37 47 -49 8 -82 34 -95
73 -10 30 -9 39 9 70 l21 35 -26 9 c-14 6 -34 10 -44 10 -13 0 -34 30 -75 106
-104 195 -106 271 -5 144 l20 -25 -10 28 c-15 42 -39 85 -75 136 -62 85 -107
211 -77 211 4 0 32 -21 62 -46 61 -51 123 -83 158 -84 33 0 23 23 -16 35 -44
15 -75 47 -129 133 -98 158 -149 339 -159 567 -6 134 0 186 45 385 10 47 24
128 30 180 6 52 36 194 65 315 43 174 55 242 59 326 5 116 15 145 69 195 58
54 124 93 316 186 216 104 374 165 557 213 72 19 201 57 288 84 165 52 206 60
477 91 176 20 281 20 652 1z m1128 -61 c0 -5 -4 -10 -10 -10 -5 0 -10 5 -10
10 0 6 5 10 10 10 6 0 10 -4 10 -10z m710 -2660 c0 -5 -7 -10 -16 -10 -8 0
-12 5 -9 10 3 6 10 10 16 10 5 0 9 -4 9 -10z m-440 -319 c0 -21 -20 -45 -51
-61 -28 -16 -25 12 7 49 30 36 44 39 44 12z m-3945 -251 c-3 -5 -12 -10 -20
-10 -8 0 -17 5 -20 10 -4 6 5 10 20 10 15 0 24 -4 20 -10z m4240 -211 c-4 -5
-13 -9 -22 -9 -13 0 -13 3 -3 15 13 15 35 11 25 -6z m-2835 -119 c0 -5 -4 -10
-10 -10 -5 0 -10 5 -10 10 0 6 5 10 10 10 6 0 10 -4 10 -10z m-90 -50 c0 -5
-4 -10 -10 -10 -5 0 -10 5 -10 10 0 6 5 10 10 10 6 0 10 -4 10 -10z m-1070
-269 c13 -33 0 -71 -25 -71 -11 0 -15 13 -15 50 0 58 20 68 40 21z m130 -20
c0 -18 -18 -41 -32 -41 -12 0 -9 45 4 58 14 14 28 6 28 -17z m-182 -108 c2
-31 -1 -42 -14 -47 -21 -8 -20 -11 -28 58 l-7 59 23 -15 c16 -11 24 -27 26
-55z m252 6 c0 -28 -44 -69 -75 -69 -14 0 -25 1 -25 3 0 10 86 93 93 90 4 -2
7 -13 7 -24z m135 -36 c-4 -11 -9 -13 -16 -6 -6 6 -6 19 2 39 12 28 13 28 17
6 2 -13 1 -31 -3 -39z m-705 22 c23 -25 23 -25 4 -41 -33 -26 -77 -42 -139
-49 -32 -4 -73 -16 -90 -26 -32 -20 -75 -25 -75 -9 0 5 26 27 58 49 32 21 64
46 71 55 17 20 37 21 45 1 9 -26 46 -17 64 15 21 36 32 37 62 5z m765 -59 c-8
-20 -12 -48 -9 -64 3 -16 1 -39 -6 -51 -19 -36 -40 -8 -40 53 0 57 20 96 50
96 18 0 18 -2 5 -34z m715 -16 c0 -5 -7 -10 -15 -10 -8 0 -15 5 -15 10 0 6 7
10 15 10 8 0 15 -4 15 -10z m-88 -45 c16 -14 36 -25 44 -25 11 0 13 -6 9 -21
-6 -17 -3 -20 17 -19 67 6 97 -1 127 -29 33 -31 43 -81 17 -81 -8 0 -36 18
-62 41 -34 30 -53 39 -68 35 -12 -4 -34 -9 -49 -13 -26 -5 -28 -4 -22 19 5 21
1 30 -23 47 -37 26 -44 26 -67 1 -20 -22 -60 -23 -60 -2 0 12 82 72 99 72 4 0
21 -11 38 -25z m1568 -20 c31 -37 -64 -177 -156 -231 -129 -76 -268 -103 -571
-111 -232 -6 -233 -6 -233 15 0 11 -4 24 -10 27 -6 3 -10 -5 -10 -18 0 -26
-16 -37 -52 -37 -18 0 -19 4 -14 35 9 45 -9 46 -25 2 -11 -33 -13 -34 -51 -27
-45 9 -40 4 -61 57 -18 46 -10 61 23 43 21 -11 27 -1 11 16 -11 11 -41 123
-41 153 0 12 6 21 15 21 8 0 15 -5 15 -10 0 -7 6 -7 20 0 14 8 26 8 40 0 15
-8 20 -8 20 2 0 14 39 58 52 58 5 0 6 -11 2 -25 -8 -33 15 -33 55 1 17 14 35
23 41 19 5 -3 10 -31 10 -61 0 -66 20 -70 33 -8 12 54 21 69 44 72 40 6 71
-62 49 -110 -6 -14 -3 -18 14 -18 37 0 58 18 74 67 l16 48 52 -1 c46 -1 57 -5
89 -36 l36 -35 87 43 87 44 11 -31 c7 -20 15 -28 25 -25 8 3 28 -1 45 -10 41
-21 58 -12 58 31 0 19 1 35 3 35 1 0 20 -7 42 -15 22 -8 56 -14 76 -15 31 0
38 4 43 25 7 29 18 32 36 10z m-1360 -25 c0 -11 -4 -20 -9 -20 -14 0 -23 18
-16 30 10 17 25 11 25 -10z m-779 -3 c0 -4 -5 -32 -11 -63 -8 -38 -9 -64 -1
-84 13 -39 -11 -42 -35 -5 -21 32 -15 117 11 145 18 19 37 23 36 7z m448 -42
c30 -15 55 -62 49 -90 -2 -12 -13 -3 -36 30 -18 26 -42 49 -53 52 -10 3 -19 9
-19 14 0 13 28 11 59 -6z m466 -27 c34 -30 44 -88 21 -123 -26 -39 -37 -30
-34 27 l3 51 -42 21 c-58 28 -63 46 -13 46 26 0 47 -7 65 -22z m-300 -44 c43
-20 80 -95 59 -117 -4 -4 -31 18 -60 48 -29 30 -59 55 -68 55 -16 0 -21 12 -9
23 11 12 43 8 78 -9z m198 -48 c76 -31 106 -159 34 -140 -19 4 -27 13 -27 29
0 34 -37 73 -76 81 -41 8 -51 19 -27 33 25 14 58 13 96 -3z m-758 -91 c0 -41
-3 -75 -7 -75 -4 0 -16 10 -28 22 -24 26 -26 75 -4 106 28 41 39 27 39 -53z
m-93 48 c21 -19 24 -63 5 -63 -21 0 -37 22 -37 52 0 32 6 35 32 11z m978 -63
c12 -23 6 -40 -15 -40 -19 0 -25 13 -18 38 7 27 19 28 33 2z m1416 -137 c42
-143 -44 -297 -223 -401 -97 -57 -103 -56 -103 16 0 78 21 146 68 218 62 95
194 224 228 224 8 0 20 -23 30 -57z m-2223 -69 c3 -4 -3 -18 -13 -32 -22 -27
-26 -63 -9 -93 5 -11 9 -28 7 -37 -3 -15 -6 -14 -26 6 -30 30 -30 99 -1 136
21 26 31 31 42 20z m-92 -192 c-19 -36 -12 -60 26 -91 41 -34 40 -48 -1 -29
-48 21 -70 92 -45 140 7 13 14 17 21 10 7 -7 6 -17 -1 -30z m-931 8 c0 -5 -4
-10 -10 -10 -5 0 -10 5 -10 10 0 6 5 10 10 10 6 0 10 -4 10 -10z m160 -8 c0
-5 -9 -17 -19 -26 -19 -17 -95 -25 -109 -12 -11 12 21 26 60 26 20 0 40 5 43
10 8 12 25 13 25 2z m-180 -49 c0 -47 -34 -90 -80 -104 -45 -14 -72 -5 -78 25
-3 13 5 16 37 16 30 0 41 4 46 19 9 30 45 71 61 71 9 0 14 -10 14 -27z m3240
-27 c0 -32 -8 -73 -20 -101 -22 -51 -99 -138 -162 -181 -39 -28 -41 -28 -54
-9 -18 24 -37 93 -30 110 2 7 57 56 121 110 64 53 119 103 122 111 12 31 23
11 23 -40z m-3394 28 c-3 -9 -6 -21 -6 -28 0 -26 -48 -66 -80 -66 -16 0 -30 5
-30 10 0 6 4 10 10 10 5 0 16 13 25 29 21 41 43 61 67 61 14 0 18 -5 14 -16z
m1316 -78 c-2 -9 9 -43 24 -76 27 -61 27 -77 0 -67 -22 9 -44 48 -46 82 -4 61
0 87 13 82 6 -2 11 -12 9 -21z m-214 -2 c18 -13 21 -19 11 -30 -6 -8 -22 -14
-35 -14 -18 0 -24 5 -24 23 0 40 13 46 48 21z m-1132 -47 c17 -46 -56 -112
-115 -103 -36 6 -71 31 -71 53 0 17 16 17 50 -3 35 -21 55 -14 81 31 21 36 46
45 55 22z m1194 -21 c0 -40 28 -66 72 -66 34 0 78 -16 78 -29 0 -6 -15 -13
-34 -16 -41 -8 -119 23 -135 53 -12 23 -15 75 -4 85 15 15 23 5 23 -27z m430
-102 c63 -39 136 -79 163 -89 26 -10 47 -22 47 -26 0 -5 -29 -9 -65 -9 -36 0
-68 0 -72 0 -5 0 -9 11 -11 26 -3 22 -7 25 -25 18 -12 -4 -39 -7 -60 -6 l-39
0 7 -36 c3 -21 9 -46 12 -56 4 -15 1 -18 -16 -13 -16 4 -22 1 -20 -11 1 -9 1
-23 0 -31 -2 -22 -31 7 -31 31 0 11 -11 33 -25 50 -44 52 -67 165 -45 222 9
24 12 25 37 14 15 -7 80 -45 143 -84z m-1490 59 c0 -10 -4 -23 -8 -29 -22 -33
-102 -45 -134 -20 -30 22 -20 29 32 22 45 -6 52 -4 72 19 25 29 38 32 38 8z
m810 -15 c-1 -13 -9 -38 -19 -57 -16 -31 -19 -32 -34 -16 -21 20 -21 28 -2 65
19 37 55 41 55 8z m-1191 -54 c19 -14 29 -14 66 -4 25 7 52 9 62 5 16 -6 15
-9 -10 -31 -49 -42 -158 -26 -165 24 -4 26 14 29 47 6z m3624 -12 c7 -33 -4
-85 -26 -128 -19 -37 -91 -104 -112 -104 -17 0 -30 59 -20 97 5 24 127 158
146 162 4 0 9 -12 12 -27z m487 -10 c0 -42 -47 -128 -88 -162 -45 -38 -333
-185 -422 -216 -63 -22 -66 -23 -83 -5 -24 24 -25 76 0 109 31 42 107 88 170
102 75 16 112 36 202 105 106 82 131 95 179 95 39 0 42 -2 42 -28z m-3830 -31
c-26 -50 -131 -74 -167 -38 -16 16 -15 17 32 17 34 0 63 8 90 24 44 25 60 24
45 -3z m920 21 c0 -5 20 -23 45 -41 42 -30 59 -61 35 -61 -24 0 -79 30 -89 48
-14 26 -14 62 -1 62 6 0 10 -4 10 -8z m155 -89 c19 -23 31 -28 69 -28 50 0 58
-8 25 -26 -44 -23 -129 17 -129 61 0 27 7 25 35 -7z m513 -6 c2 -10 -3 -17
-12 -17 -9 0 -16 2 -16 4 0 2 -3 12 -6 21 -5 13 -2 16 12 13 10 -2 20 -11 22
-21z m186 -6 c10 -16 -5 -41 -24 -41 -10 0 -21 6 -23 13 -4 7 -8 3 -12 -10 -4
-13 -11 -23 -16 -23 -13 0 -11 44 3 58 14 14 64 16 72 3z m101 -1 c-3 -5 -10
-10 -16 -10 -5 0 -9 5 -9 10 0 6 7 10 16 10 8 0 12 -4 9 -10z m-585 -20 c-8
-5 -24 -10 -35 -10 -17 0 -17 2 -5 10 8 5 24 10 35 10 17 0 17 -2 5 -10z m112
-6 c9 -3 20 -14 23 -24 3 -10 53 -72 111 -137 111 -125 160 -206 170 -284 9
-64 -24 -118 -146 -240 -107 -108 -211 -180 -380 -265 -128 -64 -367 -164
-374 -157 -2 3 4 28 14 58 17 50 25 102 21 153 -1 16 -7 22 -26 22 -30 0 -50
29 -64 89 -14 62 7 110 48 111 10 0 8 -7 -7 -23 -33 -35 -30 -91 8 -129 17
-17 34 -27 38 -23 4 3 7 35 7 69 0 60 2 64 47 116 74 85 89 131 72 219 -7 34
-21 36 -38 5 -12 -20 -26 -34 -38 -34 -16 0 -7 23 22 60 17 21 37 56 45 77
l14 38 0 -38 c1 -41 21 -43 21 -3 0 23 1 23 94 18 105 -5 149 3 106 20 -14 5
-43 7 -65 4 -52 -8 -90 11 -90 44 0 36 31 46 177 59 170 15 218 35 218 91 0
33 -14 51 -67 84 -24 14 -43 29 -43 32 0 5 42 -1 82 -12z m412 -28 c-7 -28
-18 -33 -30 -14 -4 6 -2 14 4 16 7 2 12 13 12 25 0 15 3 18 11 10 5 -5 7 -22
3 -37z m-779 20 c17 -12 17 -13 -7 -19 -29 -8 -88 1 -88 13 0 23 65 28 95 6z
m633 2 c12 -12 -1 -38 -20 -38 -17 0 -58 32 -52 41 8 13 58 11 72 -3z m272 4
c0 -4 -5 -13 -12 -20 -9 -9 -6 -12 15 -12 28 0 36 -13 15 -27 -21 -12 -70 -10
-75 4 -3 8 -14 11 -29 7 -29 -7 -33 15 -8 40 16 16 94 23 94 8z m-715 -46 c69
-29 35 -77 -73 -102 -89 -21 -128 -19 -136 9 -17 64 -1 83 83 97 71 12 89 11
126 -4z m145 -6 c36 -36 21 -71 -31 -73 -34 -2 -34 -2 -37 46 -3 45 -2 47 22
47 15 0 35 -9 46 -20z m200 1 c0 -13 -29 -35 -37 -28 -7 8 15 37 28 37 5 0 9
-4 9 -9z m205 -10 c19 -8 19 -8 -2 -19 -25 -14 -79 1 -68 18 7 12 41 12 70 1z
m-121 -11 c28 -10 33 -34 15 -74 -19 -41 -39 -41 -39 -1 0 19 -4 35 -10 35 -5
0 -10 -9 -10 -19 0 -26 -17 -36 -35 -21 -23 19 -18 46 11 69 31 24 34 24 68
11z m-674 -19 c27 -51 -9 -164 -61 -192 -35 -18 -34 -2 6 75 29 58 36 80 30
105 -7 35 8 43 25 12z m916 -48 c-32 -28 -46 -29 -46 -5 0 25 12 40 40 50 36
14 40 -16 6 -45z m79 37 c3 -5 16 -10 28 -10 33 0 7 -17 -35 -23 -40 -6 -50 7
-26 31 15 15 25 15 33 2z m-225 -26 c0 -12 -46 -32 -54 -23 -2 2 0 14 5 26 5
15 14 20 28 16 12 -3 21 -11 21 -19z m-990 -26 c0 -20 -1 -21 -20 -3 -11 10
-20 24 -20 32 0 11 4 11 20 3 11 -6 20 -20 20 -32z m1063 10 c6 -19 -10 -68
-30 -91 -43 -48 -124 -51 -139 -5 -9 28 0 32 35 14 37 -20 41 -20 41 -2 0 7
-10 16 -22 20 -17 4 -20 8 -11 17 8 8 16 8 32 -1 12 -6 34 -10 49 -8 l27 4
-29 12 c-28 12 -28 13 -11 32 20 22 51 26 58 8z m171 -37 c22 -24 13 -41 -20
-41 -29 0 -84 26 -84 40 0 15 34 12 56 -5 23 -17 43 -20 26 -3 -7 7 -12 16
-12 20 0 14 16 9 34 -11z m-129 -51 c-25 -28 -85 -64 -92 -56 -11 10 65 76 88
76 22 0 22 0 4 -20z m80 -20 c0 -10 -13 -16 -42 -18 -46 -3 -53 3 -25 24 22
18 67 14 67 -6z m-1085 -47 c0 -14 -19 -38 -25 -32 -8 8 5 39 16 39 5 0 9 -3
9 -7z m1098 -5 c-3 -7 -11 -13 -18 -13 -7 0 -15 6 -17 13 -3 7 4 12 17 12 13
0 20 -5 18 -12z m130 -12 c7 -17 8 -35 2 -57 -7 -25 -6 -37 5 -49 30 -33 12
-100 -35 -137 -21 -17 -65 -16 -80 2 -11 13 -7 15 22 15 47 0 81 36 76 81 -2
29 -7 35 -30 37 -33 4 -34 7 -8 57 11 22 20 47 20 57 0 26 15 22 28 -6z m-193
-10 c28 -20 7 -60 -39 -76 -30 -10 -42 -8 -80 8 -46 21 -75 55 -56 67 6 4 21
0 33 -9 12 -9 32 -23 45 -32 12 -9 26 -14 30 -10 4 4 -1 14 -12 21 -11 8 -16
21 -13 30 8 19 66 20 92 1z m100 -66 c15 -47 -37 -126 -89 -136 -37 -6 -76 2
-76 17 0 5 13 8 29 7 40 -3 68 25 76 75 11 72 14 78 35 67 10 -5 22 -19 25
-30z m-1887 -61 c4 -66 -9 -93 -56 -108 -40 -13 -82 -8 -82 10 0 6 9 7 21 4
48 -16 89 39 89 118 0 47 25 25 28 -24z m1710 -6 c-3 -26 -52 -72 -64 -60 -7
7 47 86 59 87 5 0 7 -12 5 -27z m-868 -45 c-1 -46 -19 -86 -62 -137 -31 -36
-38 -38 -38 -10 0 11 17 41 37 66 30 36 37 54 37 84 -1 27 3 39 12 39 10 0 14
-13 14 -42z m-100 13 c0 -12 -20 -25 -27 -18 -7 7 6 27 18 27 5 0 9 -4 9 -9z
m1070 -80 c0 -30 -56 -71 -96 -71 -36 0 -74 28 -74 55 0 21 13 19 35 -5 27
-30 69 -26 95 10 24 34 40 39 40 11z m-1155 -42 c8 -45 4 -54 -20 -46 -15 6
-20 42 -9 71 11 27 22 18 29 -25z m-165 -4 c0 -23 -22 -65 -35 -65 -16 0 -39
46 -32 64 8 21 67 22 67 1z m100 5 c0 -5 -4 -10 -8 -10 -15 0 -42 -59 -42 -93
0 -27 7 -41 27 -57 22 -17 25 -23 13 -30 -8 -6 -25 -10 -37 -10 -61 0 -74 138
-18 193 18 18 65 23 65 7z m-142 -111 c29 -55 -13 -168 -70 -188 -40 -14 -41
0 -2 49 42 52 49 77 36 123 -15 53 10 64 36 16z m-105 -133 c0 -29 -30 -69
-44 -60 -12 7 -11 45 2 83 10 29 13 31 27 18 8 -8 15 -27 15 -41z m-341 -29
c111 -184 111 -185 103 -234 -9 -61 -14 -73 -32 -73 -13 0 -15 9 -10 45 4 25
3 45 -2 45 -11 0 -21 -35 -21 -72 0 -31 -16 -38 -24 -10 -3 9 -5 40 -4 68 1
54 -9 76 -88 188 -36 51 -40 79 -13 84 12 2 18 -7 22 -35 4 -25 24 -61 58
-103 69 -86 69 -87 69 -68 0 9 -17 38 -39 65 -51 65 -71 105 -71 144 0 39 4
36 52 -44z m517 12 c7 -23 23 -52 37 -66 42 -41 25 -64 -30 -38 -49 24 -75
102 -44 133 19 19 24 15 37 -29z m-665 25 c9 -3 16 -14 16 -24 0 -9 27 -54 60
-100 33 -46 61 -90 62 -99 6 -66 2 -151 -8 -151 -8 0 -13 27 -16 73 -4 81 -20
119 -93 219 -53 73 -59 97 -21 82z m802 -46 c-20 -69 -19 -86 8 -103 25 -16
37 -55 17 -55 -57 0 -94 103 -55 158 20 29 38 29 30 0z m-205 -25 c16 -44 60
-83 104 -94 48 -12 123 -75 108 -90 -16 -16 -62 7 -81 40 -12 21 -26 31 -54
35 -55 9 -108 59 -108 102 0 41 17 44 31 7z m-163 -39 c-8 -8 -48 32 -48 48 0
7 12 0 27 -14 15 -15 24 -30 21 -34z m1412 28 c0 -14 -40 -42 -60 -42 -13 0
-20 7 -20 20 0 17 3 19 19 10 26 -13 31 -13 31 5 0 8 7 15 15 15 8 0 15 -3 15
-8z m-1295 -31 c10 -33 62 -81 87 -81 25 0 138 -93 126 -105 -12 -13 -48 6
-65 36 -12 21 -27 30 -53 34 -58 9 -105 37 -108 65 -2 14 -15 35 -30 47 l-27
23 32 0 c23 0 33 -6 38 -19z m755 -103 c-11 -89 -10 -114 4 -188 17 -89 51
-219 61 -228 3 -3 12 4 21 16 22 32 36 27 32 -10 -2 -25 -8 -34 -25 -36 -38
-6 -26 -52 31 -120 l36 -43 -24 -47 c-14 -26 -40 -69 -59 -95 -33 -47 -35 -48
-52 -30 -36 36 -94 135 -114 196 -54 162 -73 383 -49 552 l13 90 60 32 c35 19
64 28 69 23 5 -5 4 -51 -4 -112z m100 87 c0 -18 -34 -37 -54 -29 -24 9 -19 21
12 32 38 14 42 14 42 -3z m415 -50 c0 -30 -39 -27 -43 3 -3 20 0 23 20 20 15
-2 23 -10 23 -23z m-1394 -11 c29 -18 51 -24 76 -22 51 4 54 -18 5 -32 -60
-16 -132 18 -132 62 0 23 3 23 51 -8z m1019 -9 c1 -14 -40 -19 -52 -7 -6 6 -7
15 -4 20 7 12 55 1 56 -13z m-1500 2 c0 -23 -23 -37 -62 -37 -41 0 -52 21 -20
39 25 15 82 14 82 -2z m1810 -7 c0 -5 -7 -10 -15 -10 -8 0 -15 5 -15 10 0 6 7
10 15 10 8 0 15 -4 15 -10z m-651 -26 c23 -12 30 -19 22 -27 -14 -14 -61 7
-61 28 0 19 0 19 39 -1z m301 -19 c0 -16 -42 -30 -65 -21 -20 7 -19 23 3 29
37 10 62 7 62 -8z m-438 -169 c-6 -248 29 -423 129 -636 57 -121 56 -140 -6
-140 -32 0 -33 2 -40 50 -9 69 -25 63 -25 -10 l0 -60 30 0 c34 0 39 -18 15
-60 -22 -39 -19 -53 10 -46 22 6 25 3 25 -23 0 -20 -8 -35 -22 -46 -22 -15
-24 -14 -46 12 -36 46 -101 185 -114 246 -16 74 -6 86 52 67 22 -7 43 -10 47
-7 11 12 -70 39 -99 33 -20 -4 -30 -1 -37 12 -32 61 -78 417 -66 512 2 19 7
59 10 88 10 97 62 168 125 171 14 1 15 -20 12 -163z m-508 135 c9 -14 -30 -42
-71 -51 -39 -9 -83 4 -90 26 -6 17 151 42 161 25z m616 1 c0 -15 -24 -32 -47
-32 -30 0 -30 27 0 33 38 7 47 7 47 -1z m710 -2 c0 -5 -4 -10 -10 -10 -5 0
-10 5 -10 10 0 6 5 10 10 10 6 0 10 -4 10 -10z m-1162 -18 c55 -5 67 -16 30
-28 -37 -11 -79 -6 -99 12 -24 21 -25 39 -1 29 9 -4 41 -10 70 -13z m829 -18
c2 -6 -3 -14 -12 -17 -19 -8 -65 9 -65 23 0 15 72 9 77 -6z m-729 -16 c-3 -7
-15 -14 -29 -16 -23 -2 -23 -2 -5 13 24 18 39 20 34 3z m-417 -50 c27 -54 36
-60 82 -52 38 6 47 -2 25 -24 -18 -18 -69 -14 -104 7 -24 14 -33 28 -36 54 -4
34 -1 57 8 57 2 0 13 -19 25 -42z m783 27 c20 -8 36 -19 36 -24 0 -10 -24 -21
-46 -21 -19 0 -56 38 -49 50 8 13 16 13 59 -5z m282 -20 c-7 -19 -36 -19 -36
0 0 17 33 38 38 24 2 -5 1 -16 -2 -24z m-929 3 c21 -19 31 -48 18 -48 -17 0
-55 35 -55 51 0 25 8 24 37 -3z m359 -21 c12 4 15 1 12 -13 -2 -13 -13 -20
-36 -22 -38 -4 -62 12 -62 39 0 18 2 18 35 5 20 -9 43 -12 51 -9z m-636 -38
c19 -25 29 -30 59 -29 55 3 58 1 34 -19 -19 -16 -29 -17 -64 -10 -64 15 -79
26 -79 59 0 39 22 39 50 -1z m-123 -16 c68 -34 73 -38 56 -51 -20 -15 -65 -10
-99 13 -20 13 -51 75 -37 75 3 0 39 -17 80 -37z m993 12 c-7 -8 -19 -15 -26
-15 -8 0 -14 7 -14 15 0 10 10 15 26 15 22 0 25 -2 14 -15z m425 5 c-3 -5 -21
-10 -40 -10 -19 0 -37 5 -40 10 -4 6 12 10 40 10 28 0 44 -4 40 -10z m-705
-52 c0 -19 -32 -48 -53 -48 -19 0 -18 3 8 30 30 32 45 38 45 18z m359 -35
c-22 -26 -79 -10 -79 23 0 8 12 9 45 1 36 -8 42 -13 34 -24z m301 27 c0 -13
-41 -30 -54 -22 -11 6 22 32 41 32 7 0 13 -5 13 -10z m-1152 -60 c30 -40 72
-41 101 -2 13 17 20 21 21 12 0 -34 -50 -70 -98 -70 -38 0 -82 37 -82 70 0 30
33 25 58 -10z m242 1 c0 -30 -33 -81 -45 -69 -8 8 26 98 38 98 4 0 7 -13 7
-29z m1000 0 c0 -13 -24 -31 -40 -31 -17 0 -54 33 -46 41 7 7 86 -2 86 -10z
m-440 -11 c0 -16 -46 -41 -64 -34 -24 9 -20 19 17 36 32 16 47 15 47 -2z
m-270 -11 c13 -7 13 -9 -2 -14 -26 -10 -52 -2 -56 19 -3 15 0 17 20 11 12 -4
30 -11 38 -16z m350 -74 c-18 -22 -84 -17 -88 7 -3 13 6 17 40 20 51 4 66 -5
48 -27z m-390 5 c0 -23 -35 -44 -58 -35 -15 6 -13 10 11 31 34 29 47 30 47 4z
m799 0 c19 -17 21 -23 11 -35 -17 -20 -34 -19 -26 1 5 12 2 15 -11 9 -37 -14
-83 -18 -83 -6 0 6 6 11 14 11 8 0 24 9 37 20 29 24 29 24 58 0z m-494 -90
c-10 -11 -24 -20 -32 -20 -21 0 -15 26 10 43 30 20 46 4 22 -23z m-258 13 c6
-17 -33 -34 -62 -27 -16 4 -25 13 -25 26 0 16 6 19 42 16 23 -2 43 -8 45 -15z
m693 -11 c0 -21 -18 -42 -37 -42 -18 0 -16 25 3 44 21 21 34 20 34 -2z m29
-18 c-14 -18 -24 -11 -15 11 3 9 11 13 16 10 8 -5 7 -11 -1 -21z m-344 -14 c3
-5 -6 -15 -20 -22 -29 -13 -75 -2 -83 20 -5 15 94 17 103 2z m-425 -36 c0 -27
-20 -54 -40 -54 -25 0 -26 27 -3 52 20 22 43 24 43 2z m-230 -8 c0 -16 -24
-38 -33 -30 -8 9 11 44 23 44 6 0 10 -6 10 -14z m600 -28 c0 -16 -30 -48 -46
-48 -21 0 -24 15 -8 38 16 23 54 30 54 10z m-322 -43 c47 -10 34 -30 -19 -30
-39 0 -44 3 -47 23 -3 19 0 23 15 19 10 -3 33 -9 51 -12z m417 -25 c-15 -24
-56 -31 -82 -15 -28 19 -21 37 12 29 13 -3 32 -1 42 4 20 12 39 0 28 -18z
m-650 -9 c3 -5 0 -13 -5 -16 -13 -8 -52 24 -44 36 6 10 39 -5 49 -20z m220
-71 c-10 -44 9 -63 53 -55 31 6 33 4 30 -17 -3 -20 -9 -23 -43 -23 -32 0 -42
5 -52 25 -7 14 -18 25 -25 25 -18 1 -11 25 14 53 28 29 31 28 23 -8z m385 11
c0 -11 -7 -27 -16 -35 -38 -38 -74 -4 -37 36 22 24 53 24 53 -1z m-640 -30 c0
-12 -20 -25 -27 -18 -7 7 6 27 18 27 5 0 9 -4 9 -9z m740 -1 c0 -13 -34 -30
-59 -30 -32 0 -25 15 12 27 44 14 47 14 47 3z m-66 -107 c-25 -33 -44 -40 -44
-17 0 25 41 67 54 54 7 -7 3 -19 -10 -37z m-694 11 c0 -14 -4 -23 -10 -19 -5
3 -10 15 -10 26 0 10 5 19 10 19 6 0 10 -12 10 -26z m760 -18 c0 -17 -27 -29
-35 -16 -4 6 -3 15 0 20 9 15 35 12 35 -4z m-430 -34 c0 -49 27 -77 65 -68 24
6 26 4 23 -21 -3 -24 -7 -28 -33 -25 -16 1 -40 14 -52 27 -12 14 -31 25 -43
25 -27 0 -27 39 1 74 28 36 39 33 39 -12z m396 -17 c7 -18 -14 -47 -27 -39 -5
3 -9 16 -9 30 0 27 27 34 36 9z m-326 -160 c0 -22 -8 -43 -21 -56 -31 -31 -45
-11 -28 38 22 62 49 72 49 18z m93 -71 c13 -13 -7 -34 -33 -34 -39 0 -60 9
-60 26 0 10 13 14 43 14 24 0 46 -3 50 -6z m-26 -100 c-5 -31 -4 -34 9 -23 20
17 31 2 12 -17 -18 -18 -68 -9 -68 12 0 25 23 64 38 64 11 0 13 -8 9 -36z
m134 -181 c8 -9 28 -22 45 -29 45 -19 69 -73 69 -159 0 -57 5 -78 27 -115 54
-93 59 -196 15 -274 -23 -42 -57 -65 -42 -30 11 28 19 167 11 209 -4 21 -23
54 -44 77 -20 22 -38 49 -39 61 -2 12 -17 42 -33 67 -17 26 -30 52 -30 58 0
16 -22 15 -46 -3 -34 -26 -61 -19 -74 19 -21 65 29 136 96 136 17 0 38 -7 45
-17z m-1042 -118 c11 -11 11 -20 1 -49 -25 -77 50 -120 91 -52 11 19 26 37 34
40 20 7 19 0 -6 -34 -23 -30 -22 -78 2 -107 15 -17 67 -16 99 2 33 19 80 19
80 1 0 -23 -68 -73 -116 -86 -35 -10 -50 -10 -74 0 -50 21 -211 232 -225 296
-4 16 -9 38 -12 48 -5 17 3 15 53 -13 33 -18 65 -39 73 -46z m2301 55 c0 -5
-4 -10 -10 -10 -5 0 -10 5 -10 10 0 6 5 10 10 10 6 0 10 -4 10 -10z m-1696
-182 c9 -12 16 -33 16 -46 0 -32 -27 -82 -45 -82 -11 0 -14 15 -12 75 2 80 13
93 41 53z m-180 -104 c10 -25 7 -73 -5 -97 -17 -33 -71 -87 -87 -87 -17 0 -16
1 31 71 25 36 39 70 40 93 2 38 11 47 21 20z m286 -81 c0 -70 -63 -153 -116
-153 -13 0 -24 3 -24 7 0 3 25 33 56 65 51 54 56 62 52 96 -3 20 -8 46 -12 57
-6 15 -2 13 18 -8 18 -19 26 -39 26 -64z m-199 67 c27 -15 49 -63 49 -110 0
-53 -16 -51 -24 2 -7 44 -39 88 -63 88 -14 0 -17 12 -6 23 9 10 21 9 44 -3z
m531 -91 c11 -6 26 -26 34 -44 30 -72 9 -157 -49 -199 -36 -26 -105 -26 -124
0 -19 26 -17 33 22 51 21 10 38 27 45 46 13 37 13 87 1 87 -15 0 -39 -28 -47
-53 -4 -12 -17 -35 -30 -50 -39 -46 -26 -127 20 -127 8 0 18 -23 24 -55 6 -31
30 -102 53 -158 50 -123 59 -189 35 -252 -10 -25 -21 -45 -26 -45 -4 0 -10 28
-12 63 -5 77 -46 171 -96 220 -21 20 -73 60 -117 89 -100 66 -127 104 -123
173 l3 50 44 5 c41 5 45 7 56 46 14 47 49 97 82 119 27 18 117 43 156 44 16 1
37 -4 49 -10z m-617 -108 c8 -39 -10 -104 -39 -138 -35 -41 -40 -24 -11 38 14
30 25 71 25 92 0 44 16 49 25 8z m80 -7 c23 -25 32 -44 20 -44 -9 0 -65 53
-65 62 0 16 21 8 45 -18z m170 -32 c0 -18 -20 -15 -23 4 -3 10 1 15 10 12 7
-3 13 -10 13 -16z m-145 -72 c0 -18 -30 -70 -40 -70 -13 0 -13 4 7 45 16 34
33 46 33 25z m668 -15 c17 -37 15 -63 -8 -111 -22 -44 -40 -57 -64 -48 -28 11
-24 32 15 73 40 42 41 46 22 99 -10 24 24 12 35 -13z m-598 -40 c0 -16 -39
-36 -52 -28 -15 8 -8 24 15 33 32 13 37 12 37 -5z m-166 -17 c15 -59 -12 -137
-60 -171 -42 -31 -40 -11 5 47 40 51 42 57 36 100 -8 48 7 66 19 24z m634 -8
c12 -32 3 -77 -23 -116 -18 -28 -51 -34 -40 -6 4 9 14 47 23 84 10 38 20 68
24 68 3 0 11 -13 16 -30z m1482 -29 c-11 -21 -30 -29 -30 -12 0 12 31 43 37
37 3 -2 0 -14 -7 -25z m12 -42 c-12 -19 -22 -27 -26 -20 -4 6 3 24 16 41 28
39 37 21 10 -21z m-1921 15 c24 -66 -107 -146 -186 -113 l-30 12 40 7 c32 6
50 19 89 64 51 59 73 66 87 30z m534 -113 c-4 -23 -10 -41 -15 -41 -21 0 -28
85 -7 93 21 8 29 -10 22 -52z m-65 13 c6 -14 10 -36 10 -50 0 -33 -27 -84 -44
-84 -12 0 -12 8 1 48 8 26 12 62 9 80 -6 38 10 43 24 6z m-474 -92 c-10 -67
-82 -130 -132 -118 -34 9 -30 20 17 40 44 20 75 61 85 115 6 32 8 33 21 15 9
-12 12 -32 9 -52z m-146 -3 c-20 -70 -67 -111 -125 -111 -20 0 -39 3 -43 6
-12 13 15 40 49 49 19 5 50 25 70 48 45 48 61 51 49 8z m220 12 c0 -12 -20
-25 -27 -18 -7 7 6 27 18 27 5 0 9 -4 9 -9z m148 -43 c-4 -29 -38 -38 -38 -10
0 22 8 32 27 32 9 0 13 -8 11 -22z m-177 -55 c20 -52 -33 -163 -76 -163 -21 0
-19 5 16 57 19 27 34 63 37 89 2 24 6 44 9 44 2 0 8 -12 14 -27z m168 -131
c54 -222 168 -364 329 -412 33 -10 42 -18 42 -36 0 -27 -17 -34 -88 -34 -75 0
-131 29 -189 96 -26 30 -51 54 -56 54 -19 0 -109 74 -142 117 -25 33 -32 50
-26 65 4 11 3 45 -3 75 -8 48 -7 57 7 68 11 8 17 26 17 52 0 26 8 50 22 68
l22 28 21 -28 c12 -15 32 -66 44 -113z m81 64 c0 -33 -6 -52 -24 -73 -23 -26
-25 -27 -32 -9 -5 13 0 32 14 57 12 21 22 45 22 53 0 9 5 16 10 16 6 0 10 -20
10 -44z m-489 -9 c-17 -17 -34 12 -19 31 10 11 13 10 21 -3 6 -11 5 -21 -2
-28z m687 -97 c-3 -38 -10 -67 -21 -77 -26 -27 -29 -11 -7 53 12 34 18 70 15
84 -5 19 -4 22 6 13 7 -7 10 -33 7 -73z m-573 31 c-8 -36 -56 -91 -80 -91 -9
0 -15 5 -13 10 5 16 92 119 96 115 2 -2 1 -17 -3 -34z m405 -1 c0 -5 -10 -30
-22 -55 -22 -44 -37 -57 -39 -32 -3 25 3 40 24 68 21 29 37 37 37 19z m84
-114 c9 -37 -4 -82 -30 -107 -33 -31 -38 -20 -14 32 11 24 20 56 20 72 0 33
16 36 24 3z m2132 -27 c0 -8 8 -29 18 -48 17 -32 17 -36 2 -46 -20 -15 -21
-25 -1 -25 9 0 12 -6 9 -15 -4 -8 -15 -15 -26 -15 -14 0 -18 -5 -14 -15 9 -24
-22 -30 -54 -11 -16 9 -74 25 -131 37 -131 26 -179 50 -179 89 0 16 5 17 38 9
51 -12 130 -1 232 31 91 30 105 31 106 9z m-2000 -64 c-7 -28 -26 -34 -26 -9
0 8 5 25 12 37 14 26 23 8 14 -28z m1105 7 c-27 -50 -118 -87 -175 -71 -34 10
-66 37 -66 55 0 10 6 11 26 4 14 -6 56 -10 94 -10 53 0 73 4 91 20 30 24 43
25 30 2z m379 -2 c0 -28 -56 -88 -90 -95 -27 -6 -70 11 -70 27 0 5 18 8 39 8
42 0 101 39 101 66 0 8 5 14 10 14 6 0 10 -9 10 -20z m-1550 -19 c20 -38 6
-121 -20 -121 -6 0 -9 31 -7 70 2 72 9 84 27 51z m1370 0 c0 -40 -47 -71 -107
-71 -42 0 -83 23 -83 46 0 17 8 17 40 -1 37 -21 64 -18 90 10 23 24 60 34 60
16z m-586 -52 c28 -22 34 -39 14 -39 -14 0 -58 40 -58 52 0 14 16 9 44 -13z
m1072 -28 c50 -13 105 -31 121 -41 26 -15 30 -23 30 -64 0 -25 -4 -46 -9 -46
-4 0 -8 -9 -8 -20 0 -11 -7 -20 -15 -20 -18 0 -19 -12 -3 -28 9 -9 7 -17 -12
-34 -13 -12 -25 -18 -27 -13 -14 39 -38 67 -102 116 -82 63 -131 127 -131 170
0 28 0 28 33 15 17 -7 73 -23 123 -35z m-1766 -17 l0 -55 -32 3 c-29 3 -33 6
-30 28 5 34 33 80 49 80 9 0 13 -17 13 -56z m840 38 c0 -16 -24 -32 -49 -32
-23 0 -24 1 -6 20 18 20 55 28 55 12z m245 -12 c10 -16 -21 -75 -54 -103 -39
-33 -75 -43 -109 -31 -40 14 -38 32 3 32 47 0 84 26 104 73 15 37 42 51 56 29z
m325 -70 c-7 -17 -27 -39 -45 -50 -34 -21 -95 -27 -95 -10 0 6 10 10 22 10 15
0 41 19 72 53 50 54 69 53 46 -3z m-733 23 c10 -27 -32 -53 -86 -53 -67 0
-103 39 -38 41 17 0 48 7 67 14 46 18 50 18 57 -2z m568 -5 c-4 -13 -24 -40
-45 -60 -32 -31 -47 -38 -78 -38 -22 0 -45 6 -51 14 -16 19 0 29 33 20 37 -9
64 4 83 39 17 35 30 47 51 47 9 0 11 -7 7 -22z m307 7 c0 -5 -12 -19 -26 -29
-20 -16 -32 -18 -53 -10 -41 14 -38 30 9 41 50 13 69 12 70 -2z m-692 -22 c0
-73 -95 -140 -160 -113 -32 13 -56 45 -41 54 4 3 21 0 38 -6 44 -17 76 -4 101
41 32 56 62 68 62 24z m-1153 -5 c13 -12 23 -30 23 -40 0 -24 97 -72 178 -89
34 -7 62 -16 62 -20 0 -13 -56 -62 -95 -82 -22 -11 -61 -21 -87 -21 -40 -1
-52 4 -80 32 -19 17 -41 32 -50 32 -24 0 -30 16 -13 30 19 16 19 31 1 24 -22
-8 -27 134 -6 147 24 14 42 10 67 -13z m2089 -190 c28 -54 10 -173 -38 -244
-28 -42 -83 -81 -123 -90 l-30 -5 -4 272 -3 272 92 -89 c50 -49 98 -101 106
-116z m-266 121 c0 -57 -126 -125 -156 -84 -17 23 -8 38 16 25 26 -14 58 0 99
44 19 20 36 36 38 36 2 0 3 -9 3 -21z m-940 -13 c0 -24 -59 -66 -91 -66 -34 0
-69 16 -69 30 0 6 13 10 29 10 16 0 48 9 72 20 53 24 59 24 59 6z m390 -31 c0
-4 -7 -19 -15 -35 -29 -57 -108 -91 -154 -67 -33 17 -29 33 6 29 22 -2 44 7
83 37 49 37 80 51 80 36z m340 -13 c0 -39 -82 -89 -128 -77 -29 7 -19 25 14
25 14 0 40 15 62 35 42 39 52 43 52 17z m-170 -7 c0 -20 -67 -93 -101 -111
-36 -18 -83 -18 -99 1 -19 23 -2 35 47 35 43 0 50 4 87 45 42 46 66 57 66 30z
m-400 -46 c0 -26 -50 -76 -84 -85 -29 -7 -76 9 -76 26 0 6 10 8 25 4 19 -5 33
3 72 39 49 47 63 50 63 16z m-769 -97 c-38 -102 -62 -148 -100 -192 -35 -39
-50 -35 -31 10 7 17 10 33 7 37 -4 3 -9 -2 -13 -11 -7 -18 -34 -22 -34 -6 0 6
7 22 16 35 10 15 12 25 5 25 -6 0 -11 -4 -11 -10 0 -5 -7 -10 -15 -10 -23 0
-18 18 11 36 20 14 27 15 34 5 5 -9 14 -4 30 19 31 44 38 28 10 -23 -18 -32
-20 -39 -6 -28 17 15 46 63 46 78 0 4 -11 13 -25 20 -20 9 -31 8 -55 -4 -17
-8 -38 -13 -48 -11 -11 2 10 18 58 45 41 23 91 53 110 66 46 33 48 20 11 -81z
m569 83 c0 -52 -57 -115 -104 -115 -32 0 -24 20 24 56 27 21 53 46 56 56 7 22
24 24 24 3z m983 9 c44 -8 46 -17 12 -40 -32 -21 -75 -6 -75 26 0 22 6 23 63
14z m-136 -81 c-35 -36 -103 -42 -139 -13 -27 20 -38 50 -19 50 4 0 20 -9 34
-20 37 -30 78 -26 113 11 24 25 30 27 32 13 2 -9 -7 -28 -21 -41z m-510 -29
c-8 -16 -26 -39 -39 -51 -31 -29 -106 -49 -141 -37 -41 14 -28 29 21 26 40 -3
46 0 98 54 38 40 58 54 65 47 8 -8 6 -19 -4 -39z m693 9 c-1 -48 -53 -93 -107
-93 -45 0 -41 12 13 38 25 12 53 35 62 52 21 37 32 38 32 3z m-1890 -23 c0
-40 -86 -91 -104 -62 -4 7 89 81 102 82 1 0 2 -9 2 -20z m1416 -2 c35 -21 38
-21 66 -5 38 22 60 22 56 0 -8 -43 -124 -48 -169 -7 -42 38 -11 46 47 12z
m-456 -27 c-30 -58 -131 -80 -170 -38 -19 19 -19 22 -5 25 10 2 22 -1 28 -7
20 -20 55 -11 98 24 45 38 71 36 49 -4z m-820 10 c0 -11 -31 -24 -39 -16 -3 3
1 10 9 15 19 12 30 12 30 1z m1570 -11 c0 -28 -23 -70 -53 -98 -19 -18 -34
-23 -63 -20 -27 2 -39 8 -39 18 0 10 8 14 23 12 33 -5 68 22 92 68 22 43 40
52 40 20z m-1665 -106 c-18 -46 -47 -74 -78 -74 -15 0 -11 9 22 51 25 32 41
62 41 79 0 38 13 46 23 15 7 -19 4 -40 -8 -71z m1315 80 c0 -54 -143 -84 -181
-38 -22 27 4 39 49 25 33 -11 43 -11 68 2 29 16 64 22 64 11z m160 -50 c0 -16
-13 -39 -34 -60 -27 -27 -42 -34 -72 -34 -33 0 -74 22 -74 40 0 3 15 4 33 2
28 -3 42 3 81 37 55 48 66 50 66 15z m-430 -16 c0 -21 -49 -75 -83 -92 -44
-20 -81 -21 -101 0 -22 22 -20 36 4 30 11 -3 29 -9 40 -12 15 -4 32 6 65 40
42 44 75 59 75 34z m727 -15 c10 -16 25 -34 33 -41 13 -10 9 -12 -20 -10 -27
2 -38 9 -48 31 -23 48 6 65 35 20z m-1899 -49 c-14 -30 -50 -59 -85 -69 -41
-12 -26 23 27 61 27 19 52 45 57 57 l7 22 4 -22 c2 -12 -3 -35 -10 -49z m952
45 c0 -24 -24 -52 -57 -65 -52 -22 -54 -7 -4 37 44 40 61 47 61 28z m410 -20
c0 -52 -110 -109 -170 -87 -48 16 -36 33 22 33 45 0 54 4 77 33 25 31 71 45
71 21z m351 -32 c-13 -13 -26 -3 -16 12 3 6 11 8 17 5 6 -4 6 -10 -1 -17z
m-1537 -3 c14 -36 5 -90 -18 -119 -33 -41 -44 -25 -23 33 9 26 17 59 17 75 0
29 14 36 24 11z m1692 -16 c4 -6 -3 -19 -16 -30 -28 -23 -95 -25 -104 -2 -11
28 -7 33 32 37 72 7 81 7 88 -5z m-1601 -33 c16 -13 27 -26 24 -29 -7 -8 -69
32 -69 44 0 16 12 11 45 -15z m1411 -18 c-16 -63 -166 -60 -166 4 0 24 5 24
45 -1 l32 -20 44 24 c24 13 46 22 48 20 2 -2 1 -14 -3 -27z m-1674 1 c-7 -7
-12 -8 -12 -2 0 6 3 14 7 17 3 4 9 5 12 2 2 -3 -1 -11 -7 -17z m1378 -13 c0
-2 -5 -16 -12 -30 -16 -35 -29 -31 -17 5 6 17 15 30 20 30 5 0 9 -2 9 -5z
m-1137 -27 c6 -8 7 -24 3 -34 -6 -16 -9 -14 -22 15 -8 18 -14 35 -14 38 0 10
24 -4 33 -19z m-300 -80 c-18 -31 -43 -48 -43 -30 0 5 12 36 28 68 27 58 27
59 30 26 2 -19 -4 -46 -15 -64z m1287 83 c0 -6 -10 -22 -23 -37 -18 -20 -35
-28 -74 -31 -50 -5 -93 8 -93 29 0 7 11 8 33 3 50 -11 65 -8 98 19 31 26 59
34 59 17z m270 -9 c0 -14 -23 -32 -42 -32 -21 0 -23 11 -6 28 13 13 48 16 48
4z m-180 -42 c-20 -13 -70 -13 -70 0 0 6 19 10 43 10 31 0 38 -3 27 -10z m264
1 c9 -15 -23 -34 -55 -33 -39 1 -45 7 -29 27 13 16 75 21 84 6z m62 -30 c-17
-32 -137 -141 -155 -141 -13 0 -9 27 10 66 11 22 125 103 147 104 10 0 9 -7
-2 -29z m96 3 c44 -31 40 -42 -23 -74 -20 -11 -45 -34 -56 -52 -11 -18 -45
-66 -76 -107 -32 -41 -57 -78 -57 -83 0 -23 -21 -3 -31 30 -19 66 0 111 82
184 39 35 79 78 90 96 12 17 23 32 27 32 3 0 23 -12 44 -26z m-259 -30 c3 -3
-1 -23 -8 -45 -18 -51 -25 -143 -15 -196 4 -26 4 -43 -2 -43 -19 0 -68 42 -82
68 -22 44 -29 83 -14 81 26 -3 38 1 38 14 0 6 7 25 15 41 9 16 13 37 10 47 -4
11 -3 23 0 29 7 11 48 14 58 4z m-316 -69 c-29 -26 -62 -34 -55 -13 2 6 20 17
39 24 47 17 48 17 16 -11z m-27 -67 c0 -16 -3 -19 -11 -11 -6 6 -8 16 -5 22
11 17 16 13 16 -11z m750 -48 c14 -26 54 -26 92 1 35 25 43 20 31 -18 -7 -20
-18 -29 -38 -33 -21 -4 -31 -13 -40 -40 -14 -43 -56 -69 -123 -77 -51 -6 -75
8 -54 29 8 8 8 17 1 30 -9 17 -17 19 -60 13 -54 -8 -54 -7 -38 29 11 24 15 25
68 20 48 -5 60 -3 84 16 15 12 27 28 27 36 0 21 38 17 50 -6z m-150 -186 c41
-8 76 -17 78 -19 2 -2 -4 -15 -13 -29 l-17 -25 -58 31 c-32 17 -61 37 -64 44
-3 8 -4 14 -3 14 1 0 36 -7 77 -16z m-10 -469 c0 -19 -32 -63 -54 -75 -59 -31
-116 -8 -116 47 0 30 8 29 20 -2 13 -33 38 -32 86 5 36 27 64 38 64 25z m-30
-104 c0 -31 -84 -53 -108 -29 -19 19 -14 25 16 21 15 -3 38 0 52 6 32 13 40
13 40 2z m10 -139 c0 -17 -25 -32 -52 -32 -30 0 -35 9 -16 28 13 13 68 17 68
4z m-2 -85 c2 -11 -3 -17 -17 -17 -23 0 -35 15 -26 31 10 15 39 6 43 -14z"/>
<path d="M5205 10970 c-22 -16 -46 -29 -52 -30 -18 0 -16 -15 3 -31 14 -11 18
-10 30 6 8 10 14 23 14 28 0 4 8 6 18 2 11 -3 32 1 48 10 57 30 165 12 225
-37 24 -20 69 -89 69 -106 0 -8 17 -30 38 -48 23 -19 43 -48 50 -72 22 -71 82
-97 68 -29 -19 94 -24 104 -70 121 -29 11 -43 22 -40 31 3 7 1 16 -5 19 -6 4
-15 25 -21 46 -7 24 -17 40 -26 40 -8 0 -27 12 -41 26 -34 34 -108 54 -198 53
-61 0 -75 -3 -110 -29z"/>
<path d="M2499 10941 c-90 -35 -289 -193 -323 -256 -22 -40 -21 -43 22 -51 26
-5 32 -3 32 11 0 28 103 123 151 140 23 9 56 26 73 39 111 84 187 75 320 -36
32 -27 71 -55 87 -63 15 -8 30 -23 34 -33 3 -11 39 -51 80 -91 41 -39 82 -83
91 -96 8 -13 73 -55 142 -94 128 -71 242 -111 276 -98 18 7 18 8 0 28 -29 32
-91 64 -183 94 -76 25 -95 37 -190 119 -122 105 -213 194 -290 285 -93 109
-209 146 -322 102z"/>
<path d="M5046 10850 c-29 -27 -60 -50 -68 -50 -9 0 -28 -16 -42 -35 -15 -20
-36 -35 -47 -35 -20 0 -94 -46 -132 -81 -10 -9 -30 -19 -45 -22 -15 -3 -51
-22 -80 -41 -30 -19 -65 -37 -80 -41 -14 -3 -38 -15 -53 -26 -15 -11 -45 -26
-67 -33 -93 -33 -161 -83 -146 -108 11 -17 36 -7 78 32 28 26 53 40 70 40 14
0 26 4 26 8 0 12 46 32 71 32 11 0 43 16 72 35 28 19 61 35 73 35 12 0 33 11
48 25 15 14 33 25 40 25 7 0 21 9 31 20 10 11 45 30 78 42 37 13 67 32 80 50
12 16 46 48 77 70 30 23 61 49 68 57 55 68 19 69 -52 1z"/>
<path d="M3358 10168 c-65 -62 -93 -105 -118 -183 -19 -59 -67 -131 -108 -163
-110 -87 -344 -162 -509 -164 -58 -1 -81 4 -127 26 -62 31 -97 69 -177 196
-46 72 -54 81 -57 60 -2 -15 -16 -34 -37 -49 -19 -13 -35 -27 -35 -32 0 -13
35 -11 65 3 22 10 28 9 36 -3 15 -23 10 -55 -11 -74 -21 -19 -27 -45 -10 -45
6 0 21 7 35 16 19 13 27 13 44 2 23 -14 26 -30 11 -58 -9 -17 -7 -18 25 -13
46 7 65 -9 65 -58 0 -44 8 -48 35 -19 10 11 28 20 41 20 20 0 23 -6 26 -42 3
-46 16 -54 33 -20 19 37 37 52 61 52 17 0 24 -6 24 -19 0 -11 5 -23 10 -26 6
-3 10 5 10 19 0 30 25 46 74 46 29 0 36 -4 36 -19 0 -11 4 -22 9 -25 10 -7 21
16 21 44 0 22 4 25 48 35 29 6 34 4 39 -14 7 -29 23 -27 23 3 0 29 13 40 69
57 41 12 45 12 63 -10 22 -28 35 -22 18 9 -10 18 -8 25 7 42 27 30 53 41 92
40 33 -1 33 -1 16 18 -17 19 -17 22 5 65 20 40 27 45 57 45 36 0 42 13 18 36
-20 21 -19 36 6 68 15 19 27 25 40 21 23 -8 24 3 2 27 -16 17 -13 22 53 83 38
36 62 65 54 65 -9 0 -46 -28 -82 -62z"/>
<path d="M5671 10198 c-10 -30 -9 -31 4 -14 8 11 15 26 15 33 0 22 -8 14 -19
-19z"/>
<path d="M4335 10199 c11 -5 32 -13 48 -19 33 -12 44 -36 28 -61 -13 -23 -8
-24 22 -5 20 13 25 13 46 -5 21 -17 23 -23 13 -40 -18 -28 -15 -31 13 -13 25
16 27 16 55 -11 23 -22 28 -34 23 -53 -4 -18 -3 -23 6 -18 18 12 67 -12 81
-38 7 -14 9 -33 5 -47 -7 -23 -7 -24 13 -6 18 16 23 17 54 4 43 -18 78 -61 71
-87 -7 -26 9 -26 24 -1 11 18 16 19 55 7 40 -11 43 -15 40 -44 -1 -18 2 -32 8
-32 5 0 10 6 10 14 0 24 18 29 108 27 64 -1 89 -6 95 -16 7 -13 11 -13 30 -1
12 8 48 19 80 25 31 6 66 15 76 20 14 8 24 6 41 -9 27 -24 45 -26 36 -5 -3 8
-8 21 -11 28 -4 8 13 29 41 50 l48 37 23 -22 c29 -27 40 -18 17 16 -16 25 -16
28 2 47 11 12 32 30 48 42 24 17 32 18 48 8 29 -18 34 -6 14 35 -18 39 -9 64
22 64 13 0 12 3 -3 20 -18 20 -19 20 -49 -35 -46 -87 -226 -243 -304 -265 -20
-5 -96 -10 -168 -10 -146 0 -249 20 -342 67 -69 35 -173 122 -202 169 -29 46
-221 174 -259 173 -24 0 -24 -1 -6 -10z"/>
<path d="M2220 9999 c0 -9 7 -22 15 -29 19 -16 19 0 0 26 -12 16 -14 16 -15 3z"/>
<path d="M3662 9610 c-50 -40 -75 -91 -55 -111 25 -25 163 92 163 137 0 29
-56 15 -108 -26z"/>
<path d="M4047 9633 c-10 -15 11 -95 30 -122 23 -30 70 -35 86 -9 18 28 -3 89
-38 109 -40 23 -72 32 -78 22z"/>
<path d="M3645 9160 c-92 -13 -192 -38 -233 -59 l-37 -20 45 -1 c25 0 128 9
230 19 411 44 522 38 725 -34 18 -6 18 -5 -3 13 -12 11 -53 30 -90 43 -37 12
-76 28 -87 35 -15 11 -72 14 -255 13 -129 -1 -262 -5 -295 -9z"/>
<path d="M3733 8915 c-23 -10 -31 -19 -27 -29 7 -19 22 -20 60 -6 19 8 30 8
38 0 8 -8 4 -12 -12 -16 -44 -12 -20 -20 51 -16 46 2 76 9 83 18 6 8 22 14 35
14 28 0 56 16 47 25 -26 26 -223 33 -275 10z"/>
<path d="M3670 7547 c0 -2 14 -21 30 -42 17 -21 30 -48 30 -60 0 -12 11 -32
25 -45 34 -32 31 -18 -13 70 -22 44 -44 76 -54 78 -10 2 -18 2 -18 -1z"/>
<path d="M3768 7497 c19 -19 32 -43 32 -58 0 -17 11 -33 30 -48 l31 -22 -32
63 c-36 73 -56 98 -78 98 -10 0 -5 -10 17 -33z"/>
<path d="M3710 7351 c0 -17 5 -31 10 -31 6 0 10 11 10 24 0 14 -4 28 -10 31
-6 4 -10 -7 -10 -24z"/>
<path d="M2467 2783 c-2 -5 -1 -19 4 -33 7 -23 7 -23 8 8 1 31 -3 40 -12 25z"/>
<path d="M4305 1390 c-22 -24 -13 -37 31 -46 35 -7 67 17 62 45 -5 26 -70 27
-93 1z"/>
<path d="M5090 12319 c0 -5 5 -7 10 -4 6 3 10 8 10 11 0 2 -4 4 -10 4 -5 0
-10 -5 -10 -11z"/>
<path d="M5301 12303 c-1 -6 -4 -20 -7 -30 -5 -17 -5 -17 6 0 6 10 9 23 6 30
-3 9 -5 9 -5 0z"/>
<path d="M1568 9133 c7 -3 16 -2 19 1 4 3 -2 6 -13 5 -11 0 -14 -3 -6 -6z"/>
<path d="M1617 8813 c-8 -7 11 -33 24 -33 4 0 7 9 6 20 -1 20 -17 27 -30 13z"/>
<path d="M2215 7690 c-3 -5 -2 -10 4 -10 5 0 13 5 16 10 3 6 2 10 -4 10 -5 0
-13 -4 -16 -10z"/>
<path d="M1458 7535 c-27 -37 -21 -50 7 -17 14 17 25 33 25 36 0 13 -16 4 -32
-19z"/>
<path d="M2457 7448 c7 -40 10 -45 24 -31 14 14 1 63 -17 63 -10 0 -12 -9 -7
-32z"/>
<path d="M1436 7428 c-18 -25 -21 -68 -6 -68 6 0 15 11 20 24 5 13 14 27 19
31 16 9 13 35 -3 35 -8 0 -22 -10 -30 -22z"/>
<path d="M1916 7443 c-11 -11 -6 -23 9 -23 8 0 15 4 15 9 0 13 -16 22 -24 14z"/>
<path d="M1525 7430 c3 -5 11 -10 16 -10 6 0 7 5 4 10 -3 6 -11 10 -16 10 -6
0 -7 -4 -4 -10z"/>
<path d="M2610 7330 c0 -6 -10 -8 -25 -4 -18 4 -32 1 -45 -11 -26 -24 -25 -32
5 -37 22 -5 25 -2 19 15 -5 16 -3 19 11 14 9 -4 21 -7 25 -7 5 0 25 -21 45
-46 43 -58 46 -49 4 13 -30 42 -30 45 -9 38 27 -9 19 9 -11 25 -13 8 -19 8
-19 0z"/>
<path d="M2635 7196 c10 -14 22 -26 27 -26 13 0 -15 43 -31 48 -9 3 -7 -5 4
-22z"/>
<path d="M1311 7194 c0 -11 3 -14 6 -6 3 7 2 16 -1 19 -3 4 -6 -2 -5 -13z"/>
<path d="M1941 7059 c-19 -16 -32 -31 -30 -34 3 -2 21 8 40 24 19 16 32 31 29
34 -3 3 -20 -8 -39 -24z"/>
<path d="M2650 7075 c1 -17 29 -49 37 -41 4 3 -3 16 -15 29 -12 12 -22 17 -22
12z"/>
<path d="M2408 7003 c11 -21 25 -54 31 -75 7 -20 18 -38 25 -41 20 -8 -32 127
-55 141 -20 13 -20 12 -1 -25z"/>
<path d="M2520 6933 c0 -5 12 -20 26 -34 24 -21 26 -22 16 -3 -13 25 -42 50
-42 37z"/>
<path d="M2267 6909 c45 -22 59 -46 49 -85 -7 -25 -7 -25 24 -9 26 13 29 19
19 31 -14 18 2 41 34 47 21 4 21 4 -1 6 -13 0 -32 -4 -43 -10 -16 -8 -26 -5
-50 15 -17 14 -40 26 -52 26 -16 0 -11 -6 20 -21z"/>
<path d="M2103 6880 c16 -5 35 -14 44 -21 13 -11 15 -10 12 6 -3 16 -13 20
-44 22 -37 2 -38 1 -12 -7z"/>
<path d="M2524 6828 c4 -13 -3 -22 -24 -33 -16 -8 -35 -14 -42 -13 -7 2 -14
-7 -16 -19 -4 -29 5 -29 35 -1 13 12 35 21 53 20 35 -1 37 7 9 39 -15 17 -19
19 -15 7z"/>
<path d="M2175 6775 c-16 -9 -36 -23 -42 -32 -37 -48 12 -147 86 -177 50 -20
69 -20 101 0 24 14 23 14 -21 8 -152 -20 -225 163 -83 206 21 6 23 9 9 9 -11
1 -33 -6 -50 -14z"/>
<path d="M2192 6713 c-13 -22 4 -70 28 -83 30 -16 65 -12 85 10 10 11 13 20 7
20 -6 0 -14 -4 -17 -10 -9 -15 -61 -12 -75 4 -6 8 -10 25 -8 38 3 20 8 23 41
21 23 -2 35 1 32 7 -11 17 -83 12 -93 -7z"/>
<path d="M2056 6658 c4 -25 -1 -40 -19 -63 -21 -25 -32 -30 -72 -30 -41 -1
-49 -5 -67 -33 -11 -17 -51 -52 -89 -77 -99 -66 -127 -107 -94 -135 18 -15 33
-69 36 -130 3 -61 6 -64 41 -39 31 22 32 35 15 104 -3 11 -6 22 -6 24 -1 2 -8
-2 -16 -9 -8 -6 -18 -9 -24 -6 -13 8 -2 45 26 86 13 19 28 52 34 73 11 41 16
44 45 23 18 -14 18 -16 3 -61 l-17 -46 32 6 c44 10 77 27 90 47 16 26 2 31
-32 11 -22 -13 -34 -15 -42 -7 -7 7 2 30 34 77 25 37 48 62 51 56 5 -7 13 -5
25 6 14 13 34 16 84 13 40 -2 66 1 66 7 0 13 -87 129 -100 133 -5 2 -7 -11 -4
-30z m54 -57 c14 -27 13 -31 -7 -31 -28 0 -44 15 -37 33 8 23 31 21 44 -2z"/>
<path d="M3770 6287 c0 -19 8 -25 37 -33 55 -13 78 -59 78 -152 -1 -63 1 -69
12 -50 16 30 16 91 -1 131 -13 32 -102 127 -118 127 -4 0 -8 -10 -8 -23z"/>
<path d="M2144 6229 c-4 -7 -22 -9 -45 -5 -35 6 -39 4 -39 -16 0 -12 -8 -30
-17 -40 -13 -14 -14 -21 -5 -30 19 -19 14 -41 -15 -66 l-28 -23 25 7 c14 4 31
9 37 11 19 7 28 -27 13 -51 -11 -19 -10 -19 13 3 28 26 57 23 57 -6 1 -17 1
-17 14 0 16 21 46 23 46 2 0 -8 5 -15 10 -15 12 0 13 20 2 36 -4 6 -29 14 -57
17 -37 4 -55 12 -72 32 -27 31 -28 46 -8 85 21 41 75 51 136 26 12 -5 18 0 21
18 6 30 5 30 -22 14 -16 -10 -24 -10 -40 -1 -13 9 -21 9 -26 2z"/>
<path d="M1496 6145 c-9 -20 -29 -43 -46 -53 -17 -9 -39 -22 -48 -29 -33 -24
13 -15 49 10 32 21 79 80 79 98 0 22 -21 6 -34 -26z"/>
<path d="M2250 6155 c0 -8 7 -15 15 -15 8 0 15 4 15 9 0 5 -7 11 -15 15 -9 3
-15 0 -15 -9z"/>
<path d="M2234 6089 c-7 -12 13 -29 35 -29 11 0 10 5 -4 20 -21 23 -22 23 -31
9z"/>
<path d="M3355 5790 c0 -46 3 -56 13 -48 6 6 12 27 12 48 0 21 -6 42 -12 48
-10 8 -13 -2 -13 -48z"/>
<path d="M1237 5471 c-32 -97 -62 -200 -67 -230 -25 -140 1 -414 54 -566 33
-96 56 -145 117 -250 60 -104 95 -186 130 -302 13 -46 26 -83 29 -83 3 0 15
28 28 63 20 57 21 69 11 118 -7 30 -18 59 -24 64 -23 19 -35 54 -35 100 0 38
-4 47 -22 54 -69 27 -102 110 -78 196 12 43 11 46 -17 82 -64 81 -71 128 -23
155 17 9 30 24 30 32 0 13 -36 48 -74 71 -9 6 -20 25 -25 43 -8 27 -6 36 15
61 13 16 25 39 26 52 3 20 -2 25 -25 27 -33 4 -57 45 -57 96 0 26 14 56 54
115 30 44 60 98 67 120 11 37 10 43 -18 88 -17 26 -32 53 -34 59 -2 7 -30 -67
-62 -165z"/>
<path d="M1405 5180 c-3 -5 3 -10 14 -10 11 0 23 5 26 10 3 6 -3 10 -14 10
-11 0 -23 -4 -26 -10z"/>
<path d="M3643 5115 c-18 -8 -33 -19 -33 -26 0 -7 6 -8 18 -3 30 14 122 16
151 4 64 -26 107 -161 98 -309 -4 -71 -3 -89 5 -71 5 14 12 63 15 111 6 92
-11 175 -48 235 -32 53 -146 86 -206 59z"/>
<path d="M1415 5058 c6 -22 4 -28 -10 -28 -9 0 -13 -4 -10 -10 10 -16 23 -12
36 11 9 17 8 25 -6 38 -15 15 -16 14 -10 -11z"/>
<path d="M1340 5000 c1 -21 20 -43 55 -65 l30 -19 -35 40 c-19 21 -38 43 -42
49 -5 5 -8 3 -8 -5z"/>
<path d="M3645 5001 c-3 -5 4 -16 16 -25 27 -19 19 -46 -14 -46 -13 0 -34 9
-47 20 -32 27 -39 16 -10 -15 32 -34 83 -34 106 0 13 21 14 28 4 41 -20 23
-48 36 -55 25z"/>
<path d="M1385 4830 c-3 -5 -2 -10 4 -10 5 0 18 -3 28 -7 16 -6 16 -5 4 10
-15 19 -27 22 -36 7z"/>
<path d="M1510 4804 c0 -10 -8 -26 -17 -37 -17 -18 -17 -19 1 -16 21 4 41 55
25 65 -5 3 -9 -3 -9 -12z"/>
<path d="M1390 4752 c0 -12 19 -26 26 -19 2 2 -2 10 -11 17 -9 8 -15 8 -15 2z"/>
<path d="M1480 4696 c0 -7 67 -36 83 -36 7 0 5 6 -3 15 -16 15 -80 32 -80 21z"/>
<path d="M1457 4611 c-21 -36 -22 -63 -1 -102 40 -78 213 -94 230 -22 13 55
55 77 68 35 2 -10 4 -6 3 8 -2 20 -8 26 -34 28 -30 3 -32 1 -40 -40 -8 -39
-13 -44 -49 -57 -53 -19 -103 -8 -142 30 -41 40 -44 88 -7 117 30 23 31 32 7
32 -10 0 -25 -13 -35 -29z"/>
<path d="M2242 4487 c-6 -7 -14 -33 -18 -57 -4 -25 -12 -52 -20 -60 -11 -13
-8 -15 17 -16 26 -1 29 2 22 20 -10 31 -6 96 8 112 6 8 9 14 6 14 -2 0 -9 -6
-15 -13z"/>
<path d="M4128 4443 c-27 -31 -38 -61 -38 -102 0 -75 31 -110 86 -97 21 6 24
3 24 -19 0 -42 -26 -80 -80 -120 -63 -46 -58 -58 6 -18 75 46 107 92 112 163
5 64 -3 110 -18 110 -5 0 -10 -15 -12 -32 -3 -29 -7 -33 -37 -36 -43 -4 -54 7
-54 57 0 81 55 115 122 75 58 -34 98 -134 80 -197 -5 -17 -7 -33 -4 -35 7 -7
35 64 35 88 0 39 -58 137 -93 159 -43 26 -108 28 -129 4z"/>
<path d="M1665 4433 c-76 -22 -105 -34 -105 -45 0 -6 8 -7 18 -3 9 4 45 15 79
26 34 11 65 24 68 29 8 12 3 12 -60 -7z"/>
<path d="M1620 4339 c-9 -17 -17 -19 -43 -13 -28 6 -30 5 -18 -10 18 -22 40
-20 68 6 13 12 26 18 30 14 10 -10 -10 -39 -37 -53 -37 -18 -43 -39 -25 -77 9
-19 24 -37 33 -41 15 -5 15 -4 0 12 -9 10 -19 30 -23 45 -6 23 -2 29 25 43 17
9 36 27 43 42 9 21 8 27 -8 39 -25 19 -32 18 -45 -7z"/>
<path d="M2167 4334 c-11 -11 -8 -49 5 -62 15 -15 31 -16 22 0 -4 6 -10 24
-13 40 -3 16 -9 26 -14 22z"/>
<path d="M2225 4240 c4 -6 11 -8 16 -5 14 9 11 15 -7 15 -8 0 -12 -5 -9 -10z"/>
<path d="M2215 4197 c-4 -10 -5 -21 -1 -24 10 -10 18 4 13 24 -4 17 -4 17 -12
0z"/>
<path d="M1693 4118 c39 -35 47 -67 22 -88 -12 -10 -18 -10 -30 0 -11 9 -15 9
-15 1 0 -18 29 -25 56 -13 49 23 24 88 -46 121 -19 9 -16 4 13 -21z"/>
<path d="M2285 4140 c-4 -6 7 -10 24 -10 16 0 37 -8 47 -17 15 -16 17 -16 30
2 8 10 14 22 14 25 0 11 -109 10 -115 0z"/>
<path d="M1593 4123 c-7 -3 -13 -14 -13 -26 1 -20 2 -20 11 -4 8 14 14 15 30
6 22 -11 35 -7 25 9 -7 12 -37 20 -53 15z"/>
<path d="M4357 3972 c-47 -49 -74 -170 -47 -212 7 -11 10 -3 10 30 1 68 18
131 47 168 31 42 25 51 -10 14z"/>
<path d="M4651 3930 c7 -14 16 -38 20 -55 l7 -30 1 31 c1 19 -7 41 -20 55
l-20 24 12 -25z"/>
<path d="M4432 3846 c-31 -35 -67 -126 -59 -149 2 -6 10 7 17 31 16 53 30 54
30 3 0 -22 5 -43 10 -46 6 -4 10 8 10 29 0 20 4 36 9 36 11 0 21 -50 21 -106
0 -23 5 -46 10 -49 8 -5 9 10 4 44 -4 35 -3 51 5 51 6 0 11 -10 11 -22 0 -13
5 -30 10 -38 8 -12 10 -9 10 13 0 17 5 27 15 27 23 0 37 -47 39 -130 1 -88
-20 -138 -87 -207 -47 -49 -44 -54 11 -19 103 66 134 159 97 296 -20 74 -19
77 14 94 16 9 31 23 35 32 6 15 5 15 -18 0 -33 -21 -39 -20 -25 5 30 57 -29
139 -101 139 -31 0 -44 -6 -68 -34z m137 -12 c12 -15 21 -37 21 -50 0 -29 -35
-66 -57 -62 -23 4 -64 88 -57 116 9 33 66 31 93 -4z"/>
<path d="M4505 3820 c-11 -17 5 -51 23 -48 23 4 23 52 0 56 -9 2 -19 -2 -23
-8z"/>
<path d="M4313 3634 c-12 -26 -12 -26 7 -9 20 18 26 35 13 35 -5 0 -13 -12
-20 -26z"/>
<path d="M3751 3481 c-10 -6 -12 -19 -6 -47 9 -52 31 -88 67 -109 34 -20 48
-13 26 12 -32 36 -50 86 -45 120 5 26 2 33 -11 33 -9 0 -23 -4 -31 -9z"/>
<path d="M3582 3454 c-27 -19 -28 -27 0 -64 l21 -30 -26 -37 c-28 -40 -23 -52
13 -33 27 14 50 68 50 114 0 66 -16 80 -58 50z"/>
<path d="M4437 3363 c-4 -3 -7 -13 -7 -21 0 -12 3 -12 15 -2 8 7 15 16 15 21
0 11 -14 12 -23 2z"/>
<path d="M4372 3241 c-17 -28 -32 -54 -32 -60 0 -6 18 -55 39 -108 49 -124 56
-164 37 -228 -13 -44 -13 -48 0 -30 8 11 20 37 26 57 12 42 6 72 -47 217 -23
65 -26 80 -16 111 6 20 20 45 31 55 18 16 19 35 2 35 -4 0 -22 -22 -40 -49z"/>
<path d="M5790 3151 c-17 -132 -8 -261 28 -406 52 -212 63 -363 31 -462 -11
-33 -23 -41 -34 -23 -24 39 -51 -28 -64 -158 -12 -114 -36 -188 -52 -161 -5
10 -16 50 -24 90 -18 86 -43 169 -57 186 -15 19 -47 -26 -68 -95 -23 -72 -41
-112 -51 -112 -5 0 -11 12 -15 28 -11 50 -26 82 -40 82 -21 0 -62 -80 -83
-161 -20 -78 -47 -267 -39 -274 2 -3 17 68 32 157 28 162 40 203 71 228 21 18
32 5 39 -49 7 -53 8 -55 36 -46 24 8 44 47 60 121 11 46 34 84 51 84 8 0 24
-67 63 -261 13 -62 28 -115 33 -116 19 -7 34 60 48 208 15 176 35 226 63 164
6 -14 15 -25 20 -25 4 0 18 60 31 133 31 176 27 269 -25 477 -37 151 -38 159
-36 323 1 92 0 167 -2 167 -2 0 -9 -44 -16 -99z"/>
<path d="M3205 3188 c-13 -27 -44 -63 -87 -98 -97 -79 -110 -99 -116 -180 -4
-67 -4 -70 28 -102 24 -24 35 -29 38 -19 3 8 -2 19 -10 25 -23 17 -38 52 -38
88 0 39 18 108 28 108 4 0 20 11 36 25 25 21 46 32 46 23 0 -2 -9 -32 -20 -66
-30 -97 -27 -185 10 -258 16 -32 28 -59 27 -60 -1 -1 -17 -6 -35 -11 -43 -11
-37 -28 8 -24 74 6 143 53 185 125 61 105 54 215 -18 293 -35 38 -43 55 -52
109 l-10 64 -20 -42z m34 -167 c21 -13 5 -41 -24 -41 -18 0 -25 5 -25 18 0 31
21 41 49 23z m21 -151 c0 -42 -29 -109 -52 -121 -28 -15 -30 -8 -13 41 8 23
15 55 15 70 0 31 7 40 32 40 13 0 18 -8 18 -30z"/>
<path d="M3761 3163 c13 -79 10 -157 -6 -180 -8 -11 -35 -30 -61 -42 -55 -26
-52 -37 7 -21 23 6 57 9 75 5 46 -8 93 -57 100 -106 6 -37 19 -57 30 -47 2 3
-1 30 -8 61 -11 47 -19 60 -51 81 -21 14 -49 29 -62 32 -14 3 -25 7 -25 9 0 1
7 22 15 45 8 23 15 58 15 76 0 19 3 34 6 34 4 0 20 -14 36 -30 16 -17 40 -35
55 -41 16 -6 23 -14 19 -24 -7 -19 -9 -19 50 9 l49 25 -49 0 c-65 1 -102 26
-150 100 -21 34 -42 61 -46 61 -4 0 -3 -21 1 -47z"/>
<path d="M3440 3146 c0 -4 9 -24 20 -46 11 -21 24 -67 29 -102 8 -60 1 -164
-14 -187 -3 -6 -3 -11 0 -11 16 0 35 77 35 143 0 85 -21 166 -50 192 -11 10
-20 15 -20 11z"/>
<path d="M2018 2652 c-13 -2 -18 -13 -18 -39 0 -29 2 -33 14 -24 13 11 31 61
24 65 -2 1 -11 1 -20 -2z"/>
<path d="M5153 1905 c0 -22 2 -30 4 -17 2 12 2 30 0 40 -3 9 -5 -1 -4 -23z"/>
<path d="M5163 1815 c0 -22 2 -30 4 -17 2 12 2 30 0 40 -3 9 -5 -1 -4 -23z"/>
<path d="M5171 1744 c-1 -17 4 -89 9 -160 11 -124 35 -214 59 -214 10 0 51
113 51 139 -1 9 -11 -7 -23 -36 -13 -29 -26 -55 -29 -58 -8 -9 -17 33 -44 210
-12 83 -23 136 -23 119z"/>
<path d="M5311 1644 c0 -11 3 -14 6 -6 3 7 2 16 -1 19 -3 4 -6 -2 -5 -13z"/>
<path d="M3750 1386 c0 -8 -14 -26 -30 -39 -17 -14 -26 -28 -21 -32 6 -3 25 8
44 25 19 16 38 26 42 22 4 -4 2 3 -4 16 -13 25 -31 30 -31 8z"/>
<path d="M3801 1300 c0 -19 4 -42 9 -50 7 -11 10 -8 9 15 0 17 -4 39 -9 50 -7
16 -9 14 -9 -15z"/>
<path d="M3937 1272 c-37 -40 -63 -156 -45 -198 11 -27 12 -23 19 52 5 50 16
98 28 123 23 45 23 51 -2 23z"/>
<path d="M4476 1044 c-11 -8 -29 -14 -39 -14 -17 0 -19 -6 -15 -50 6 -60 13
-70 33 -44 15 20 49 113 44 119 -2 2 -13 -3 -23 -11z"/>
<path d="M4185 380 c-3 -5 -1 -10 4 -10 6 0 11 5 11 10 0 6 -2 10 -4 10 -3 0
-8 -4 -11 -10z"/>
</g>
</svg>
