<?xml version="1.0" standalone="no"?>
<!DOCTYPE svg PUBLIC "-//W3C//DTD SVG 20010904//EN"
 "http://www.w3.org/TR/2001/REC-SVG-20010904/DTD/svg10.dtd">
<svg version="1.0" xmlns="http://www.w3.org/2000/svg"
 width="640.000000pt" height="640.000000pt" viewBox="0 0 640.000000 640.000000"
 preserveAspectRatio="xMidYMid meet">
<metadata>
Created by potrace 1.16, written by Peter Selinger 2001-2019
</metadata>
<g transform="translate(0.000000,640.000000) scale(0.100000,-0.100000)"
fill="#000000" stroke="none">
<path d="M4360 4853 c-83 -15 -521 -123 -1015 -249 -313 -80 -658 -168 -765
-195 -235 -60 -239 -62 -222 -150 11 -58 10 -64 -11 -93 -21 -29 -22 -40 -20
-202 l2 -172 -51 55 c-59 62 -189 132 -260 140 -29 3 -76 -3 -141 -21 -108
-28 -161 -52 -209 -95 -18 -15 -48 -36 -67 -46 -79 -40 -191 -193 -191 -260 0
-18 -3 -17 -25 7 -51 55 -105 49 -272 -32 -110 -53 -258 -137 -311 -177 -75
-57 -80 -109 -37 -438 19 -151 26 -233 22 -292 -6 -79 -8 -85 -60 -162 -62
-89 -96 -172 -104 -247 -9 -87 4 -98 239 -195 215 -88 311 -104 389 -65 18 9
34 16 35 16 12 0 -40 -108 -63 -132 -50 -52 -120 -31 -315 96 -109 71 -184
106 -227 106 -85 0 -183 -116 -522 -618 -87 -129 -159 -244 -159 -255 0 -11
73 87 162 219 340 504 447 632 526 634 30 0 104 -38 232 -120 136 -87 160 -99
215 -106 85 -12 125 24 170 156 14 41 36 86 49 100 13 14 56 73 95 132 129
192 142 261 35 181 -54 -40 -110 -133 -148 -242 -20 -57 -44 -110 -54 -118
-51 -41 -64 -45 -125 -45 -72 1 -156 26 -319 96 -207 88 -209 91 -190 184 14
68 70 183 115 234 l32 37 224 -64 c194 -56 234 -65 305 -65 66 0 91 5 136 26
113 52 129 96 53 144 -66 41 -87 39 -106 -7 -18 -45 -73 -123 -87 -123 -5 0
14 48 43 107 50 103 52 111 52 188 -1 44 -5 110 -9 147 -6 45 -5 87 3 129 11
56 11 64 -3 75 -13 9 -14 17 -6 38 8 21 7 28 -5 32 -13 5 -13 8 1 21 8 9 16
14 18 12 1 -2 17 -25 34 -50 71 -105 156 -153 272 -153 113 0 320 29 377 54
80 34 146 114 223 270 52 103 74 263 52 367 -20 92 -36 403 -23 451 7 23 16
42 21 42 5 0 14 -19 20 -42 40 -156 243 -885 536 -1928 24 -85 79 -282 122
-436 43 -155 86 -294 96 -309 18 -27 20 -27 84 -21 167 17 1498 327 1731 403
104 33 169 77 192 127 34 75 23 159 -54 406 -47 150 -66 240 -51 240 5 0 33
-25 63 -55 55 -57 94 -76 114 -56 9 9 7 19 -6 44 -19 35 -146 169 -278 292
-81 75 -107 109 -123 162 -7 21 -5 22 23 17 75 -15 237 124 320 275 25 47 51
86 58 88 6 3 78 -64 160 -147 81 -84 196 -195 256 -247 65 -57 110 -105 114
-120 7 -30 -17 -103 -38 -114 -8 -4 -49 -24 -91 -45 -91 -44 -224 -141 -291
-213 -37 -40 -48 -58 -45 -79 3 -25 6 -27 49 -26 110 1 287 136 369 282 33 57
38 62 79 68 119 18 247 -48 524 -268 54 -44 97 -72 97 -64 0 31 -303 257 -419
313 -62 30 -90 37 -154 41 -67 4 -77 7 -71 21 12 29 17 98 8 113 -5 8 -43 43
-84 78 -41 35 -157 147 -258 248 -169 171 -185 184 -211 179 -25 -5 -31 -2
-41 22 -12 29 -87 125 -278 353 -178 212 -193 228 -228 243 -33 14 -117 27
-257 40 -38 4 -98 17 -134 30 -52 18 -73 21 -105 13 -56 -12 -91 -32 -133 -75
-38 -39 -44 -58 -30 -94 4 -12 -4 -23 -29 -38 -26 -17 -45 -42 -71 -99 l-36
-77 -112 3 c-114 3 -144 -4 -134 -31 8 -21 84 -44 217 -67 63 -11 117 -25 121
-32 16 -26 21 -111 9 -154 -11 -37 -10 -47 4 -68 20 -32 262 -204 342 -245 77
-39 126 -48 303 -57 83 -4 145 -12 150 -18 5 -6 20 -38 32 -71 20 -54 38 -76
191 -225 175 -170 212 -212 206 -232 -3 -7 -37 18 -77 56 -39 37 -77 66 -84
63 -26 -9 -11 -118 41 -282 55 -177 77 -288 68 -341 -14 -70 -84 -122 -220
-164 -245 -76 -1494 -365 -1701 -395 -73 -10 -51 -64 -220 545 -42 151 -105
376 -140 500 -35 124 -95 340 -135 480 -39 140 -91 325 -115 410 -85 303 -215
782 -215 796 0 29 159 90 655 250 897 291 1261 383 1355 344 61 -25 107 -152
150 -410 47 -286 65 -345 96 -319 31 25 18 155 -56 549 -50 270 -51 271 -149
269 -36 -1 -77 -4 -91 -6z m159 -32 c10 -10 23 -45 29 -77 6 -33 29 -158 52
-279 40 -217 62 -427 41 -394 -6 9 -28 119 -51 245 -77 434 -107 488 -270 487
-84 -1 -82 2 16 21 102 21 160 20 183 -3z m-709 -137 c-603 -179 -1273 -400
-1379 -453 l-39 -21 -12 52 c-8 41 -8 54 2 64 13 12 88 32 928 246 217 56 451
115 520 133 194 50 184 40 -20 -21z m475 -637 c23 -8 104 -22 180 -31 77 -9
157 -20 177 -26 40 -11 46 -18 230 -239 211 -255 260 -315 275 -344 15 -29 14
-32 -7 -49 -14 -12 -39 -18 -69 -18 -59 0 -126 38 -243 140 -135 117 -184 140
-351 166 -72 12 -111 23 -132 39 -104 78 -205 91 -315 40 -57 -27 -73 -31 -95
-26 -3 0 2 12 11 25 10 16 14 40 12 66 -3 39 0 45 42 81 44 37 48 38 140 45
87 5 101 4 163 -20 95 -37 187 -33 187 7 0 18 -80 40 -180 48 -58 5 -126 12
-153 15 -36 5 -56 1 -87 -15 -49 -25 -50 -26 -50 -3 0 25 57 81 105 104 45 21
97 19 160 -5z m-2160 -121 c90 -42 156 -101 191 -173 26 -52 27 -59 21 -161
-7 -120 -26 -222 -57 -305 -35 -93 -135 -174 -295 -238 -74 -29 -85 -31 -170
-26 -54 3 -115 14 -153 27 -254 89 -328 495 -127 693 27 26 50 46 52 44 1 -2
-8 -27 -22 -56 -78 -161 -53 -338 66 -465 118 -126 286 -174 419 -119 122 50
200 245 172 433 -13 90 -38 146 -85 191 -75 72 -209 114 -344 107 -46 -3 -83
-3 -83 -1 0 10 97 49 174 69 109 29 142 26 241 -20z m-194 -80 c188 -40 271
-142 271 -332 0 -185 -66 -317 -177 -354 -62 -21 -180 -8 -250 26 -84 40 -176
133 -203 205 -45 121 -39 229 20 339 44 85 58 98 118 114 70 19 138 19 221 2z
m1961 -177 c11 -6 39 -8 62 -5 22 4 118 0 211 -9 94 -8 177 -15 187 -15 15 0
66 -86 56 -95 -2 -2 -75 8 -162 22 -132 22 -163 31 -182 50 -26 26 -51 29 -79
9 -17 -11 -36 -11 -132 5 -134 22 -190 36 -199 51 -9 14 209 2 238 -13z
m-2530 -106 c10 -9 18 -22 18 -30 0 -25 -39 -53 -74 -53 -76 0 -397 -145 -404
-183 -6 -30 41 -20 101 24 118 84 347 160 347 115 0 -17 -33 -59 -92 -118 -26
-25 -66 -67 -88 -93 -22 -25 -40 -44 -40 -42 0 3 9 25 20 50 30 68 18 84 -60
77 -56 -4 -212 -62 -243 -90 l-32 -29 2 -258 1 -258 -13 120 c-8 66 -21 168
-29 226 -20 133 -21 241 -2 277 21 41 143 120 326 212 156 79 220 92 262 53z
m3461 -108 c143 -121 180 -139 269 -133 l67 5 -21 -41 c-52 -104 -186 -235
-259 -256 -28 -8 -39 -7 -59 8 -51 38 -90 52 -194 67 -134 20 -239 54 -341
111 -171 94 -189 144 -51 144 118 0 160 20 212 103 l25 37 78 -6 c43 -4 91 -4
106 0 25 6 27 10 22 42 -5 31 -4 33 14 24 10 -6 70 -53 132 -105z m-683 60
c138 -122 224 -135 272 -41 12 23 23 35 26 28 5 -15 -40 -77 -73 -98 -14 -9
-62 -18 -125 -23 -104 -8 -120 -15 -120 -53 0 -62 234 -193 415 -231 l70 -15
-51 -1 c-79 -1 -162 18 -233 54 -76 38 -318 211 -332 237 -6 10 -5 27 1 43 5
14 10 36 10 47 0 23 58 96 77 97 7 1 35 -19 63 -44z m170 19 c72 -13 90 -20
90 -34 0 -19 -36 -55 -65 -64 -29 -8 -112 34 -165 83 l-45 42 48 -5 c26 -3 88
-13 137 -22z m-2885 -259 c48 -138 154 -237 278 -260 55 -11 46 -27 -10 -19
-79 11 -140 42 -188 97 -51 59 -82 116 -90 169 -7 44 -27 67 -66 75 l-28 5 24
36 c14 20 25 50 25 67 0 17 6 37 13 44 10 10 13 -5 18 -76 4 -48 14 -110 24
-138z m-285 1 c0 -8 -20 -56 -44 -106 -51 -104 -64 -174 -44 -235 10 -31 19
-41 38 -43 35 -3 71 51 104 158 15 47 30 91 35 98 6 9 23 8 78 -6 62 -16 70
-20 62 -35 -6 -10 -22 -17 -38 -17 -49 0 -91 -12 -91 -26 0 -21 45 -27 100
-13 27 7 52 10 55 8 2 -3 0 -23 -7 -45 -7 -25 -8 -72 -3 -134 17 -203 16 -215
-42 -332 -29 -58 -53 -113 -53 -122 0 -23 -21 -20 -250 45 -184 52 -230 67
-230 78 0 3 7 29 16 56 12 41 15 97 12 307 -4 314 -10 297 138 345 109 35 164
42 164 19z m4543 -603 c-97 -155 -224 -256 -345 -278 -49 -9 -50 7 -3 62 68
80 304 243 351 243 12 0 11 -5 -3 -27z m-4186 -128 c23 -14 43 -32 43 -40 0
-31 -124 -95 -184 -95 -18 0 -18 2 6 28 15 15 38 51 53 80 14 28 29 52 32 52
4 0 26 -11 50 -25z"/>
</g>
</svg>
