<svg id="Layer_1" enable-background="new 0 0 128 128" height="512" viewBox="0 0 128 128" width="512" xmlns="http://www.w3.org/2000/svg"><g><path d="m119.338 22.382h-57.978c-1.769 0-3.426-.868-4.433-2.322l-2.578-3.725c-1.38-1.993-3.651-3.184-6.077-3.184h-35.61c-2.757 0-5 2.243-5 5v95.698c0 2.757 2.243 5 5 5h106.676c2.757 0 5-2.243 5-5v-86.467c0-2.757-2.243-5-5-5z" fill="#e6e7e8"/><g><path d="m119.337 34.163h-114.675v75.687c0 2.209 1.791 4 4 4h106.675c2.209 0 4-1.791 4-4z" fill="#d4fbff"/><path d="m62 113.85h53.337c2.209 0 4-1.791 4-4v-75.687h-57.337z" fill="#ffd7e5"/><g fill="#fa759e"><g><path d="m42.82 65.5h-6.809c-.552 0-1-.447-1-1s.448-1 1-1h6.809c.552 0 1 .447 1 1s-.447 1-1 1z"/><path d="m30.012 65.5h-16.833c-.552 0-1-.447-1-1s.448-1 1-1h16.833c.552 0 1 .447 1 1s-.448 1-1 1z"/><path d="m42.82 86.5h-10.308c-.552 0-1-.447-1-1s.448-1 1-1h10.308c.552 0 1 .447 1 1s-.447 1-1 1z"/><path d="m28.512 86.5h-15.333c-.552 0-1-.447-1-1s.448-1 1-1h15.333c.552 0 1 .447 1 1s-.448 1-1 1z"/></g><g><path d="m42.82 107.5h-10.308c-.552 0-1-.447-1-1s.448-1 1-1h10.308c.552 0 1 .447 1 1s-.447 1-1 1z"/><path d="m28.512 107.5h-15.333c-.552 0-1-.447-1-1s.448-1 1-1h15.333c.552 0 1 .447 1 1s-.448 1-1 1z"/></g></g><g><path d="m69.024 55.968v-13.6c0-1.105.895-2 2-2h37.953c1.105 0 2 .895 2 2v13.6c0 1.105-.895 2-2 2h-37.953c-1.105 0-2-.895-2-2z" fill="#fa759e"/><path d="m69.024 91.211v-24.818c0-1.105.895-2 2-2h37.953c1.105 0 2 .895 2 2v24.817c0 1.105-.895 2-2 2h-37.953c-1.105.001-2-.895-2-1.999z" fill="#0089ef"/></g><path d="m115.337 110.85h-106.675c-2.209 0-4-1.791-4-4v3c0 2.209 1.791 4 4 4h106.675c2.209 0 4-1.791 4-4v-3c0 2.209-1.791 4-4 4z" fill="#fff"/><path d="m52.106 16.629-2.579-3.725c-1.194-1.724-3.157-2.753-5.254-2.753h-35.611c-2.209 0-4 1.791-4 4v20.012h114.675v-10.781c0-2.209-1.791-4-4-4h-57.977c-2.097 0-4.061-1.029-5.254-2.753z" fill="#0089ef"/><g><circle cx="36.972" cy="18.791" fill="#fff" r="2.727"/><circle cx="27.065" cy="18.791" fill="#d4fbff" r="2.727"/><circle cx="17.158" cy="18.791" fill="#fa759e" r="2.727"/><path d="m109.569 29.291h-93.75c-.829 0-1.5-.672-1.5-1.5s.671-1.5 1.5-1.5h93.75c.828 0 1.5.672 1.5 1.5s-.671 1.5-1.5 1.5z" fill="#6dc9f7"/></g><g fill="#3a2c60"><path d="m45.345 70.5h-25.166c-.552 0-1 .447-1 1s.448 1 1 1h25.166c.552 0 1-.447 1-1s-.448-1-1-1z"/><path d="m20.179 93.5h15.166c.552 0 1-.447 1-1s-.448-1-1-1h-15.166c-.552 0-1 .447-1 1s.448 1 1 1z"/><path d="m19.179 99.5c0 .553.448 1 1 1h22.333c.552 0 1-.447 1-1s-.448-1-1-1h-22.333c-.552 0-1 .447-1 1z"/><path d="m13.279 51.911 8.472 3.456c.24.096.464.144.672.144.368 0 .676-.124.924-.372s.372-.564.372-.948c0-.224-.06-.428-.18-.612s-.292-.324-.516-.42l-7.849-3.144 7.849-3.144c.464-.208.695-.552.695-1.032 0-.384-.12-.696-.359-.936-.24-.24-.544-.36-.912-.36-.225 0-.456.048-.696.144l-8.472 3.456c-.4.16-.712.408-.937.744-.224.336-.336.712-.336 1.128 0 .432.112.812.336 1.14.225.329.537.581.937.756z"/><path d="m26.263 58.703c.304 0 .579-.084.828-.252.247-.168.42-.42.516-.756l5.521-17.28c.048-.176.071-.344.071-.504 0-.384-.144-.7-.432-.948s-.624-.372-1.008-.372c-.288 0-.557.084-.805.252s-.428.42-.54.756l-5.495 17.28c-.049.176-.072.344-.072.504 0 .384.144.7.432.948.287.248.615.372.984.372z"/><path d="m34.531 53.579c-.12.185-.181.388-.181.612 0 .384.124.7.372.948.248.249.556.372.924.372.208 0 .433-.048.672-.144l8.473-3.456c.399-.176.712-.428.936-.756.225-.328.336-.708.336-1.14 0-.416-.111-.792-.336-1.128-.224-.336-.536-.584-.936-.744l-8.473-3.456c-.239-.096-.472-.144-.695-.144-.368 0-.672.12-.912.36s-.36.552-.36.936c0 .48.232.824.696 1.032l7.848 3.144-7.848 3.144c-.225.097-.397.237-.516.42z"/><path d="m111.977 42.368c0-1.654-1.346-3-3-3h-37.953c-1.654 0-3 1.346-3 3v13.6c0 1.654 1.346 3 3 3h37.953c1.654 0 3-1.346 3-3zm-2 13.6c0 .552-.448 1-1 1h-37.953c-.552 0-1-.448-1-1v-13.6c0-.552.448-1 1-1h37.953c.552 0 1 .448 1 1z"/><path d="m111.977 91.21v-24.817c0-1.654-1.346-3-3-3h-37.953c-1.654 0-3 1.346-3 3v24.817c0 1.654 1.346 3 3 3h37.953c1.654 0 3-1.346 3-3zm-40.953-25.817h37.953c.552 0 1 .448 1 1v15.327l-5.394-3.865c-.365-.262-.861-.247-1.213.036l-5.565 4.512-14.045-10.374c-.357-.263-.848-.26-1.202.011l-12.534 9.602v-15.249c0-.552.448-1 1-1zm37.953 26.817h-37.953c-.552 0-1-.448-1-1v-7.049l13.153-10.077 14.062 10.388c.366.269.868.259 1.224-.028l5.574-4.52 5.939 4.257v7.029c.001.552-.448 1-.999 1z"/><path d="m97.25 76.583c2.481 0 4.5-2.019 4.5-4.5s-2.019-4.5-4.5-4.5-4.5 2.019-4.5 4.5 2.019 4.5 4.5 4.5zm0-7c1.379 0 2.5 1.121 2.5 2.5s-1.121 2.5-2.5 2.5-2.5-1.121-2.5-2.5 1.121-2.5 2.5-2.5z"/><path d="m109.29 98.5h-38.58c-.553 0-1 .447-1 1s.447 1 1 1h38.58c.553 0 1-.447 1-1s-.447-1-1-1z"/><path d="m109.29 105.5h-38.58c-.553 0-1 .447-1 1s.447 1 1 1h38.58c.553 0 1-.447 1-1s-.447-1-1-1z"/><path d="m119.337 82.25c-.553 0-1 .447-1 1v9.438c0 .553.447 1 1 1s1-.447 1-1v-9.438c0-.553-.447-1-1-1z"/><path d="m115.337 18.382h-57.977c-1.768 0-3.425-.868-4.432-2.322l-2.579-3.726c-1.38-1.993-3.652-3.184-6.077-3.184h-35.609c-2.757 0-5 2.243-5 5v95.699c0 2.757 2.243 5 5 5h106.675c2.757 0 5-2.243 5-5v-13.182c0-.553-.447-1-1-1s-1 .447-1 1v13.183c0 1.654-1.346 3-3 3h-52.338v-77.687h55.337v44.087c0 .553.447 1 1 1s1-.447 1-1v-55.868c0-2.757-2.243-5-5-5zm-109.674-4.231c0-1.654 1.346-3 3-3h35.61c1.769 0 3.425.868 4.432 2.322l2.579 3.726c1.381 1.993 3.652 3.184 6.077 3.184h57.977c1.654 0 3 1.346 3 3v9.781h-112.675zm55.337 56.349h-9.49c-.552 0-1 .447-1 1s.448 1 1 1h9.49v5h-40.821c-.552 0-1 .447-1 1s.448 1 1 1h40.821v12h-19.49c-.552 0-1 .447-1 1s.448 1 1 1h19.49v5h-13.401c-.552 0-1 .447-1 1s.448 1 1 1h13.401v12.35h-52.338c-1.654 0-3-1.346-3-3v-74.687h55.338z"/></g></g></g></svg>