<?xml version="1.0" standalone="no"?>
<!DOCTYPE svg PUBLIC "-//W3C//DTD SVG 20010904//EN"
 "http://www.w3.org/TR/2001/REC-SVG-20010904/DTD/svg10.dtd">
<svg version="1.0" xmlns="http://www.w3.org/2000/svg"
 width="570.000000pt" height="806.000000pt" viewBox="0 0 570.000000 806.000000"
 preserveAspectRatio="xMidYMid meet">
<metadata>
Created by potrace 1.16, written by Peter Selinger 2001-2019
</metadata>
<g transform="translate(0.000000,806.000000) scale(0.100000,-0.100000)"
fill="#000000" stroke="none">
<path d="M2063 6730 c-193 -53 -370 -136 -469 -223 -49 -43 -50 -42 -64 39 -5
35 -8 40 -9 19 -1 -29 16 -105 24 -105 2 0 37 25 77 55 101 77 202 126 348
173 175 55 189 57 226 30 34 -25 99 -97 93 -102 -2 -2 -82 -20 -178 -40 -165
-35 -226 -53 -386 -110 -38 -14 -91 -26 -117 -26 -27 0 -48 -4 -48 -9 0 -17
52 -126 78 -163 15 -21 76 -75 135 -119 59 -45 130 -103 157 -130 27 -27 55
-49 62 -49 10 0 9 -3 -1 -9 -12 -7 -12 -15 -4 -33 9 -19 7 -27 -15 -50 -30
-33 -23 -46 15 -29 31 14 38 7 53 -54 23 -96 57 -181 135 -340 106 -219 157
-307 213 -375 71 -85 339 -345 421 -408 40 -31 90 -72 110 -90 31 -28 34 -33
19 -42 -56 -34 -341 -244 -420 -310 -137 -115 -245 -253 -250 -320 -1 -14 2
-39 6 -57 7 -28 4 -33 -22 -47 -74 -38 -203 -232 -218 -326 -6 -37 -8 -39 -68
-54 -90 -22 -125 -39 -186 -91 -126 -107 -412 -400 -602 -618 -301 -344 -306
-350 -313 -378 -4 -16 2 -57 14 -101 17 -59 21 -101 20 -213 -1 -111 4 -156
20 -218 34 -130 70 -189 206 -341 92 -102 135 -160 163 -215 34 -70 41 -77 97
-105 33 -17 76 -43 95 -57 50 -38 101 -62 212 -98 53 -18 108 -41 122 -52 32
-25 60 -24 123 5 67 31 150 88 289 196 62 48 174 127 250 175 412 263 454 296
571 450 25 33 54 63 65 68 16 6 18 10 8 22 -9 11 -5 25 24 68 20 30 36 59 36
66 0 35 -125 -21 -173 -78 -14 -17 -32 -31 -41 -31 -8 0 -65 -27 -128 -59
-109 -57 -267 -125 -274 -118 -2 2 38 20 88 42 50 21 138 67 197 103 276 169
301 179 375 156 50 -16 54 -16 94 5 39 20 92 67 150 133 24 28 29 48 11 48 -5
0 -8 -4 -4 -9 3 -5 0 -13 -6 -16 -7 -5 -10 -1 -7 11 2 12 23 25 64 39 115 40
204 110 204 161 0 17 8 19 63 20 153 4 340 83 737 313 166 97 265 196 290 293
5 18 14 139 20 268 18 350 5 472 -81 752 -22 73 -45 148 -51 166 -56 191 -255
706 -302 784 -30 50 -31 57 -18 74 26 34 113 222 119 258 8 48 -16 60 -99 47
-35 -5 -130 -15 -213 -21 -199 -15 -398 -37 -460 -52 -67 -15 -90 -31 -135
-98 -44 -65 -76 -89 -128 -97 -20 -3 -49 -12 -64 -19 -15 -8 -30 -14 -34 -14
-4 0 -4 27 -1 60 3 40 23 104 62 197 80 196 105 265 99 275 -10 16 -71 8 -89
-12 -10 -11 -37 -29 -61 -41 -46 -22 -69 -51 -60 -75 3 -8 12 -14 21 -14 23 0
18 -15 -16 -49 -39 -40 -62 -45 -139 -31 -34 6 -85 10 -112 9 -87 -5 -104 27
-170 319 -18 79 -34 139 -36 134 -4 -14 44 -230 74 -330 20 -65 34 -94 67
-129 47 -51 114 -90 129 -75 17 17 -9 49 -49 61 -38 11 -38 11 12 6 28 -3 80
-8 117 -12 l67 -6 55 57 c30 31 59 56 63 56 5 0 25 11 45 25 20 14 39 25 42
25 3 0 -10 -33 -28 -73 -67 -145 -107 -267 -107 -321 0 -28 -9 -78 -21 -111
l-20 -60 19 -55 c11 -30 23 -62 27 -71 6 -13 -18 -30 -118 -84 -69 -37 -155
-87 -192 -111 -37 -24 -69 -44 -71 -44 -1 0 -49 35 -105 77 -110 83 -421 381
-486 466 -92 119 -280 504 -326 665 -14 51 -26 95 -26 98 0 12 69 44 96 44 49
0 124 29 194 76 71 47 195 163 251 234 38 47 89 131 89 145 0 13 -96 -2 -132
-21 -65 -34 -138 -97 -173 -150 -20 -29 -56 -68 -81 -85 -53 -36 -190 -102
-252 -120 l-43 -12 -47 45 c-26 25 -94 80 -152 123 -57 43 -115 91 -128 109
-26 34 -85 146 -80 151 2 1 31 7 65 13 34 6 93 24 130 41 67 29 276 84 446
117 52 10 87 22 87 29 0 6 -29 40 -64 73 -72 70 -76 70 -183 42z m577 -380 c0
-24 -136 -183 -221 -258 -107 -94 -189 -140 -269 -148 -30 -4 -70 -15 -88 -25
l-33 -19 26 34 c15 20 23 40 19 50 -4 9 -1 16 6 16 23 0 195 86 228 115 19 16
51 52 73 81 45 61 127 127 185 148 47 17 74 20 74 6z m1850 -1023 c0 -29 -90
-227 -122 -270 -13 -17 -15 -16 -42 12 l-29 31 60 62 c70 74 90 105 74 121 -8
8 -31 -3 -82 -38 -39 -26 -96 -56 -126 -67 -31 -10 -61 -22 -68 -28 -6 -5 -31
-16 -54 -25 -23 -8 -55 -24 -70 -35 -16 -11 -98 -48 -182 -84 -85 -35 -210
-89 -278 -120 -137 -62 -172 -68 -195 -34 -21 30 -21 126 0 156 18 26 71 55
84 47 5 -3 29 2 52 13 41 18 58 35 136 131 21 26 46 44 70 51 60 16 242 38
462 55 113 9 207 18 209 21 5 5 101 6 101 1z m-210 -272 c13 -14 29 -25 36
-25 18 0 59 -56 93 -126 79 -164 301 -795 360 -1027 44 -167 54 -322 41 -591
-12 -247 -16 -284 -33 -267 -20 20 -97 12 -191 -19 -198 -66 -589 -313 -750
-472 -48 -49 -57 -63 -52 -83 6 -23 5 -24 -21 -14 -14 5 -85 45 -157 88 -262
155 -559 314 -570 304 -17 -17 1 -37 84 -95 50 -34 86 -64 80 -66 -6 -2 -76
15 -155 37 -134 39 -175 46 -325 55 -30 2 -103 7 -161 11 -86 6 -115 5 -154
-9 -27 -9 -74 -16 -105 -16 -48 0 -64 5 -99 31 -24 17 -41 32 -39 33 1 1 100
-3 218 -10 334 -20 559 -21 594 -4 63 32 60 40 -58 157 -120 119 -168 182
-241 322 -49 92 -138 248 -260 454 -40 66 -66 99 -81 103 -33 8 -50 56 -36
103 14 46 90 147 163 217 133 127 464 366 496 358 41 -11 307 142 408 235 52
48 87 66 245 127 52 20 151 63 219 95 69 33 161 71 205 85 45 14 86 27 91 29
6 2 37 4 71 4 52 1 64 -2 84 -24z m-1913 -1347 c98 -148 98 -137 -2 -137 -93
1 -137 -14 -245 -84 -52 -34 -55 -35 -58 -15 -2 12 15 60 39 107 31 63 60 104
110 154 37 37 73 67 81 67 8 0 41 -42 75 -92z m213 -324 c44 -78 80 -145 80
-148 0 -4 -35 24 -78 61 -109 94 -159 120 -262 132 -46 6 -110 11 -142 11 -32
0 -58 4 -58 8 0 11 118 77 164 92 23 7 67 10 108 8 41 -3 71 -1 75 5 8 14 21
-5 113 -169z m-392 30 c42 -6 52 -10 52 -25 0 -13 26 -31 93 -64 50 -24 106
-47 123 -51 44 -8 189 -134 215 -187 47 -92 32 -235 -28 -258 -32 -12 -112
-11 -198 2 -38 6 -119 14 -180 17 -105 7 -110 8 -113 30 -6 40 -35 21 -59 -38
-26 -67 -48 -85 -270 -221 -218 -134 -240 -143 -320 -136 -66 7 -85 -5 -37
-23 42 -16 106 -11 192 14 44 14 102 28 129 32 64 9 173 48 379 135 l169 71
200 5 200 5 160 -42 c283 -75 314 -81 366 -69 41 9 53 8 100 -12 30 -13 73
-34 95 -46 40 -22 42 -26 42 -72 0 -82 10 -110 54 -142 23 -16 48 -29 57 -29
9 0 22 -4 30 -9 11 -7 0 -16 -40 -37 -116 -58 -194 -62 -384 -20 -129 29 -202
33 -423 21 -139 -7 -175 -12 -240 -35 -43 -15 -138 -49 -212 -74 -74 -26 -205
-80 -290 -121 -192 -91 -249 -111 -375 -135 -90 -16 -95 -18 -48 -19 56 -1
225 36 343 74 41 14 162 68 268 120 168 82 211 99 324 125 71 17 158 34 192
37 72 6 422 -12 536 -28 73 -10 76 -12 75 -37 0 -24 4 -27 38 -30 20 -2 37 -7
37 -11 0 -16 -85 -92 -125 -111 -39 -19 -45 -19 -85 -5 -23 8 -50 15 -59 15
-27 0 -129 -52 -281 -145 -152 -92 -267 -145 -705 -322 -247 -100 -319 -133
-250 -117 17 3 122 44 235 89 113 45 270 106 350 134 80 29 214 86 298 128
152 76 152 76 185 60 17 -9 40 -18 50 -21 16 -5 16 -8 3 -34 -8 -15 -54 -69
-102 -121 -93 -98 -165 -151 -433 -316 -79 -49 -220 -145 -311 -214 -275 -207
-328 -232 -396 -188 -22 14 -59 31 -84 37 -83 22 -174 63 -246 111 -39 26 -87
54 -108 63 -30 12 -41 26 -65 78 -32 72 -70 121 -199 263 -104 113 -142 183
-173 313 -18 73 -20 105 -15 198 5 92 3 123 -14 185 -31 119 -30 127 47 216
482 556 822 905 922 945 101 41 203 54 309 42z m391 -165 c65 -39 133 -104
174 -163 22 -32 84 -103 138 -157 85 -84 97 -99 82 -107 -33 -17 -112 -23
-208 -16 l-96 7 19 21 c51 55 54 166 8 260 -20 40 -48 74 -97 116 -72 62 -79
75 -20 39z m2176 -259 c16 -27 -111 -143 -286 -263 -114 -77 -166 -105 -302
-158 -105 -41 -337 -112 -344 -106 -7 8 105 109 191 172 120 88 308 206 423
266 150 77 300 119 318 89z m-2532 -267 l39 -18 -44 -18 c-170 -74 -352 -141
-423 -156 -46 -10 -82 -14 -80 -10 3 4 56 38 118 75 159 96 220 138 253 176
l29 33 35 -33 c19 -18 52 -40 73 -49z m1372 -261 c60 -47 103 -111 89 -133
-10 -17 -75 -5 -117 22 -39 25 -57 65 -57 127 0 44 15 41 85 -16z"/>
</g>
</svg>
