<?xml version="1.0" standalone="no"?>
<!DOCTYPE svg PUBLIC "-//W3C//DTD SVG 20010904//EN"
 "http://www.w3.org/TR/2001/REC-SVG-20010904/DTD/svg10.dtd">
<svg version="1.0" xmlns="http://www.w3.org/2000/svg"
 width="794.000000pt" height="1123.000000pt" viewBox="0 0 794.000000 1123.000000"
 preserveAspectRatio="xMidYMid meet">
<metadata>
Created by potrace 1.16, written by Peter Selinger 2001-2019
</metadata>
<g transform="translate(0.000000,1123.000000) scale(0.100000,-0.100000)"
fill="#000000" stroke="none">
<path d="M4425 9410 c3 -171 38 -436 62 -485 9 -16 27 -43 40 -59 26 -32 19
-46 -24 -46 -18 0 -23 7 -29 38 -15 83 -53 132 -103 132 -83 0 -328 -83 -493
-167 -168 -85 -240 -146 -224 -189 9 -23 58 -14 172 30 134 51 357 102 582
131 l52 7 0 -49 c0 -62 -20 -132 -73 -252 -34 -77 -42 -89 -49 -72 -4 12 -14
21 -22 21 -18 0 -38 -38 -86 -158 -18 -45 -46 -97 -62 -114 l-29 -31 -107 6
c-59 4 -159 16 -222 27 -63 11 -154 23 -202 27 l-88 6 -1 31 c-4 127 11 189
67 289 19 33 33 62 30 64 -11 11 -78 -65 -105 -118 -42 -84 -55 -156 -48 -269
7 -117 13 -137 142 -535 129 -396 147 -463 149 -545 1 -78 -22 -127 -86 -186
-56 -52 -103 -80 -172 -104 -60 -20 -157 -37 -141 -23 24 19 56 106 50 135
-23 104 -224 165 -343 104 -26 -14 -81 -52 -122 -85 -70 -57 -78 -61 -127 -61
l-51 0 -19 48 c-13 35 -18 74 -18 155 0 67 -4 106 -10 104 -14 -5 -54 -126
-61 -190 -9 -75 1 -120 35 -156 40 -43 82 -41 171 5 62 33 72 35 101 25 46
-16 235 -13 284 4 37 13 41 13 72 -11 27 -21 31 -28 23 -44 -13 -25 -50 -50
-73 -50 -10 0 -16 -4 -12 -10 3 -5 12 -7 21 -3 9 3 2 -15 -18 -48 l-33 -53 3
-146 c3 -120 1 -149 -11 -159 -10 -7 -90 -18 -208 -27 -105 -8 -208 -18 -228
-24 -20 -5 -133 -25 -251 -45 -129 -21 -220 -41 -228 -49 -24 -24 -6 -60 60
-118 384 -336 697 -466 966 -403 82 20 166 60 191 91 32 40 59 125 87 267 15
73 33 139 40 148 33 37 1 85 -87 129 -51 26 -88 25 -178 -6 -78 -27 -167 -33
-199 -14 -14 8 -13 9 8 10 62 1 72 32 68 203 l-3 142 36 50 c28 40 43 52 75
59 210 46 322 114 380 233 46 93 35 149 -127 643 -102 311 -139 440 -139 489
0 29 2 32 15 21 8 -7 15 -25 15 -39 0 -44 90 -99 300 -184 170 -70 251 -91
311 -83 75 10 146 35 177 61 l30 25 6 -33 c21 -118 39 -347 40 -492 0 -169 0
-171 -33 -260 -81 -219 -297 -664 -399 -822 -33 -51 -83 -145 -111 -210 -29
-65 -93 -200 -143 -301 l-91 -182 -35 6 c-73 14 -166 9 -194 -10 -61 -40 -24
-79 92 -97 41 -7 79 -16 83 -20 12 -9 -53 -200 -98 -288 l-35 -71 -30 34 c-22
25 -60 46 -138 77 -169 69 -290 66 -422 -9 -70 -40 -117 -81 -155 -136 -48
-71 -68 -143 -68 -249 l0 -87 -36 6 c-313 50 -388 77 -596 214 -128 85 -438
305 -610 433 -215 161 -193 138 61 -65 425 -339 654 -492 821 -546 64 -21 231
-56 320 -67 51 -7 52 -7 58 -48 10 -60 61 -200 103 -282 50 -101 106 -179 181
-255 85 -85 163 -140 357 -250 86 -49 158 -91 161 -94 3 -2 -20 -40 -50 -83
-30 -43 -73 -114 -95 -158 -51 -102 -156 -261 -261 -395 -112 -142 -151 -212
-212 -370 -60 -159 -100 -234 -174 -326 -57 -71 -149 -245 -164 -309 -5 -19
18 -15 24 5 8 25 178 313 210 355 12 17 36 58 54 92 65 130 410 699 522 863
32 47 90 121 129 165 75 86 90 117 71 148 -14 21 -12 24 78 119 35 37 48 45
58 36 11 -8 12 -7 7 7 -5 12 0 23 13 34 177 142 303 252 369 320 l81 83 -6
-38 c-14 -81 24 -164 85 -190 29 -12 39 -12 67 0 35 14 181 170 192 205 10 33
-13 61 -78 92 -52 24 -57 29 -34 29 68 0 142 -64 153 -132 9 -52 -29 -135
-117 -260 -128 -180 -377 -559 -479 -728 -84 -140 -143 -254 -211 -409 -13
-30 -52 -95 -87 -145 -185 -266 -242 -371 -242 -444 0 -51 43 -68 88 -36 42
29 305 328 394 449 146 196 240 283 488 455 240 167 257 179 315 232 32 29
134 141 227 250 166 194 212 239 275 272 l32 16 -31 -50 c-50 -80 -51 -192 -3
-244 35 -38 94 -36 165 7 158 94 158 231 -1 300 -32 15 -33 15 -8 16 63 2 159
-106 167 -188 6 -64 -18 -115 -100 -216 -36 -44 -72 -94 -81 -110 -22 -43
-134 -169 -353 -396 -104 -107 -225 -236 -268 -285 -44 -49 -192 -204 -329
-344 -274 -279 -329 -343 -408 -470 -51 -82 -209 -385 -209 -401 0 -4 91 87
202 202 235 245 264 272 347 319 128 72 164 103 207 173 22 38 81 109 130 160
242 247 646 719 812 949 51 69 111 142 134 162 36 31 48 36 92 36 l51 0 -57
-50 c-64 -57 -138 -161 -138 -194 0 -13 18 -39 43 -62 102 -98 125 -98 206 -5
125 146 141 206 71 272 -24 23 -36 41 -29 45 16 10 61 -27 81 -67 44 -84 1
-197 -141 -373 -53 -65 -119 -149 -146 -185 -69 -91 -667 -827 -1048 -1290
-70 -86 -126 -160 -124 -165 2 -5 10 -14 18 -19 10 -6 31 8 79 55 36 34 96 89
133 121 37 33 113 116 169 185 56 70 150 177 208 237 108 112 189 216 315 405
39 57 97 133 129 168 49 53 64 63 85 59 21 -4 38 8 104 77 l79 81 -7 -40 c-12
-63 -23 -84 -185 -355 -529 -884 -655 -1115 -655 -1202 0 -96 66 -125 263
-114 333 18 419 25 442 34 53 21 64 58 43 150 -18 78 -20 422 -3 512 9 51 53
149 115 260 21 39 26 66 35 185 5 77 16 187 24 245 18 127 8 325 -22 438 l-19
73 79 157 c49 99 78 169 78 190 0 54 17 36 44 -46 76 -232 198 -664 216 -762
16 -85 80 -590 80 -628 0 -30 3 -33 25 -30 14 2 26 6 27 11 5 35 -16 327 -28
382 -8 39 -19 97 -25 130 -5 33 -19 87 -31 120 -43 120 -70 253 -83 404 -27
307 -55 421 -148 606 -26 52 -29 66 -23 115 21 170 33 202 103 280 37 41 56
53 110 70 37 11 75 18 85 14 46 -14 96 -175 108 -344 9 -138 12 -145 118 -410
38 -96 75 -198 80 -225 6 -28 16 -137 23 -243 10 -170 9 -210 -6 -347 -19
-163 -17 -437 4 -519 11 -43 14 -35 -249 -539 -45 -87 -79 -164 -76 -172 17
-45 64 7 151 167 32 59 85 140 118 180 66 81 80 107 96 189 8 40 9 64 1 84 -9
24 -5 39 34 119 57 116 66 168 60 352 -5 131 -2 167 20 294 57 320 77 489 73
620 -5 189 -66 504 -112 590 -59 107 -68 135 -70 205 -2 39 -8 106 -14 150 -6
44 -16 114 -21 155 -13 94 -37 158 -62 166 -36 11 -45 -13 -16 -43 45 -47 49
-72 21 -121 -18 -30 -25 -56 -25 -93 1 -55 14 -79 43 -79 22 0 29 -22 32 -100
2 -51 0 -55 -27 -68 -24 -12 -43 -13 -108 -3 -113 15 -163 40 -178 85 -13 40
0 205 22 279 18 59 63 101 131 123 31 10 66 26 77 36 40 37 16 134 -43 173
-13 8 -47 16 -75 16 -62 2 -58 -32 -36 308 20 312 17 429 -15 493 -12 26 -35
59 -49 73 -28 29 -24 29 -147 2 -81 -18 -317 -49 -590 -77 -347 -35 -1078 -56
-1404 -41 -181 9 -436 34 -478 46 -8 3 16 60 65 157 43 84 106 217 141 295 35
78 89 183 121 234 105 163 319 603 401 824 33 90 34 91 33 265 0 152 -5 206
-36 405 -20 127 -41 259 -47 295 -9 60 -9 57 -4 -34 l6 -98 -24 7 c-42 13 -73
32 -103 64 -28 29 -35 31 -97 31 -89 0 -281 25 -394 52 -133 31 -89 33 92 3
220 -36 320 -42 361 -21 37 19 70 72 112 184 32 83 50 103 50 56 0 -19 5 -25
17 -22 12 2 37 49 77 143 54 126 61 148 64 222 l4 81 33 6 c54 10 60 27 24 72
-17 21 -35 47 -41 57 -16 31 -59 334 -68 487 l-8 145 3 -155z m-22 -460 c26
-20 47 -73 47 -116 0 -19 -7 -22 -72 -27 -171 -15 -430 -75 -636 -148 -176
-62 2 82 220 178 142 62 324 121 409 132 4 1 18 -8 32 -19z m-758 -810 c121
-33 295 -59 423 -62 82 -3 85 -4 123 -40 21 -21 57 -43 79 -49 38 -12 39 -13
24 -30 -21 -24 -105 -55 -169 -63 -77 -10 -247 43 -451 140 -105 50 -154 87
-154 115 0 24 -6 24 125 -11z m-349 -1116 c63 -30 91 -74 75 -117 l-11 -28
-35 27 c-27 20 -35 34 -35 59 0 40 -30 68 -71 67 -17 0 -60 -10 -97 -22 -146
-48 -154 -48 -93 -5 84 57 174 64 267 19z m-79 -55 c49 -23 54 -36 20 -48 -36
-14 -198 -22 -237 -13 l-35 9 60 27 c112 52 131 55 192 25z m-77 -648 c0 -28
213 -44 296 -22 60 16 91 10 132 -24 36 -30 33 -58 -6 -74 -111 -43 -172 -54
-332 -61 -176 -8 -302 0 -668 43 -169 20 -192 21 -190 8 2 -12 62 -27 241 -62
329 -65 461 -83 566 -76 96 6 308 49 359 72 38 18 39 13 16 -66 -35 -116 -95
-205 -162 -236 -25 -12 -26 -12 -2 -7 59 15 123 92 156 188 9 25 18 46 21 46
15 0 -49 -194 -74 -222 -29 -33 -129 -75 -206 -89 -81 -13 -182 -7 -272 16
-82 22 -245 101 -346 168 -151 101 -356 274 -342 288 5 5 102 24 217 44 115
20 228 40 250 46 85 21 346 36 346 20z m440 -140 c0 -13 -105 -46 -230 -72
-136 -28 -286 -30 -448 -5 -67 11 -120 21 -118 23 2 3 73 -1 158 -8 215 -17
429 -2 548 39 47 16 86 30 88 31 1 0 2 -3 2 -8z m2684 -483 c19 -27 15 -31
-49 -51 -172 -55 -533 -91 -1225 -122 -450 -20 -763 -19 -1097 5 -153 11 -284
22 -291 25 -10 4 -9 12 3 42 9 20 17 39 19 40 2 2 75 -6 162 -18 296 -40 1190
-37 1664 6 351 33 709 82 748 104 20 11 45 -1 66 -31z m-2678 -51 c2 -2 -4
-22 -13 -45 -18 -48 -23 -49 -127 -27 -96 20 -118 45 -63 74 20 10 192 9 203
-2z m2720 -33 c15 -39 16 -69 11 -240 -4 -107 -11 -265 -18 -352 -10 -140 -14
-163 -40 -217 -47 -96 -53 -235 -10 -235 24 0 27 10 36 96 4 38 9 76 11 84 1
8 3 29 3 46 1 39 32 50 91 34 52 -14 90 -60 90 -111 0 -43 -11 -52 -106 -83
-77 -25 -111 -71 -134 -181 -7 -33 -13 -103 -14 -155 -1 -85 -3 -96 -19 -97
-10 -1 -44 -9 -75 -18 -45 -13 -68 -28 -110 -72 -77 -78 -93 -121 -119 -309
-4 -34 3 -60 50 -165 72 -163 83 -202 101 -344 22 -169 25 -215 15 -209 -5 3
-9 11 -9 17 0 22 -118 404 -135 436 -9 18 -22 34 -30 37 -8 3 -19 20 -25 38
-14 44 -72 98 -102 97 -12 -1 -65 -1 -116 -1 -61 0 -102 -5 -120 -14 -41 -22
-102 -89 -192 -216 -91 -126 -149 -197 -375 -460 -186 -217 -304 -349 -418
-464 -48 -49 -106 -119 -127 -156 -43 -74 -62 -91 -201 -172 -84 -50 -119 -80
-269 -235 l-174 -178 53 100 c124 233 165 284 561 690 187 191 283 293 324
345 15 19 90 98 165 175 237 242 337 352 376 412 21 32 65 92 98 133 118 147
133 230 63 336 -60 90 -126 127 -188 104 -18 -6 -58 -18 -88 -26 -31 -9 -76
-32 -106 -55 -48 -37 -84 -76 -291 -319 -119 -140 -203 -215 -364 -325 -336
-230 -435 -316 -567 -495 -79 -107 -145 -188 -233 -285 -20 -22 -64 -71 -97
-109 -72 -81 -110 -110 -129 -95 -32 27 31 167 152 338 127 181 151 221 190
317 78 193 322 594 619 1014 156 221 186 295 155 377 -14 38 -57 83 -96 99
-47 20 -159 17 -208 -5 -22 -10 -76 -55 -120 -101 -107 -112 -162 -163 -275
-255 -52 -43 -111 -93 -132 -113 l-36 -34 -13 23 c-6 13 -15 26 -19 29 -4 3
-15 20 -24 38 -14 27 -22 32 -49 30 l-32 -1 30 -4 c25 -3 36 -14 61 -61 l32
-57 -78 -83 -77 -84 -94 52 c-287 161 -400 243 -495 364 -91 115 -179 301
-218 459 -6 26 -5 27 36 27 24 0 73 -3 109 -6 l67 -7 6 -37 c10 -65 43 -128
130 -248 93 -129 148 -186 216 -225 54 -31 218 -87 251 -86 13 0 -7 8 -46 19
-105 27 -194 66 -250 108 -100 76 -273 333 -290 433 l-7 36 109 5 c129 6 173
23 251 93 29 26 54 46 56 44 2 -2 19 -39 39 -81 19 -43 47 -89 61 -103 29 -29
79 -33 114 -9 27 19 29 69 6 158 -9 33 -26 109 -38 168 l-22 107 51 103 c27
57 64 147 80 201 l30 98 50 -5 c28 -3 149 -13 270 -22 670 -49 2112 31 2338
130 45 20 44 21 63 -30z m-3086 -329 c52 -21 97 -42 98 -46 2 -5 7 -7 12 -4 4
3 22 -11 39 -31 l32 -36 -27 -46 c-15 -26 -47 -73 -70 -106 l-43 -59 -17 42
c-31 79 -107 117 -216 109 -44 -3 -69 -12 -101 -34 -62 -44 -87 -96 -94 -199
l-6 -86 -86 7 c-139 11 -135 7 -129 122 7 151 61 252 176 329 141 94 265 105
432 38z m241 -375 c42 -178 39 -196 -25 -207 -50 -8 -69 11 -123 125 l-44 92
34 43 c19 23 52 69 73 101 l39 59 8 -44 c4 -24 21 -100 38 -169z m-298 164
c28 -13 44 -31 63 -71 l26 -53 -24 -29 c-82 -97 -136 -122 -280 -129 l-108 -5
0 54 c1 123 35 194 115 235 42 21 60 25 110 21 33 -3 77 -13 98 -23z m1163
-583 c34 -16 64 -36 67 -44 7 -19 -30 -71 -109 -154 -47 -50 -66 -63 -90 -63
-83 0 -130 115 -89 218 30 75 118 92 221 43z m2024 -366 c63 -17 182 -20 210
-5 15 8 19 5 24 -24 3 -18 22 -59 42 -92 39 -65 75 -178 94 -294 6 -41 21
-124 32 -185 16 -86 19 -132 14 -211 -6 -109 -44 -373 -78 -549 -17 -89 -21
-150 -22 -320 -1 -200 -2 -213 -25 -265 -14 -30 -32 -66 -40 -79 l-16 -24 -7
34 c-16 67 -20 322 -8 419 6 52 14 141 17 197 6 109 -12 395 -29 478 -6 27
-46 139 -90 250 -94 236 -108 286 -108 380 0 70 -27 205 -54 270 -8 19 -14 35
-13 35 1 0 27 -7 57 -15z m-1073 -86 c50 -24 86 -70 86 -110 0 -72 -142 -180
-213 -162 -74 20 -62 210 17 273 33 25 56 25 110 -1z m466 -405 c57 -38 63
-66 30 -125 -40 -69 -134 -179 -153 -179 -19 0 -85 46 -115 79 -19 22 -19 22
4 65 30 58 158 185 186 186 6 0 27 -12 48 -26z m-30 -431 c-3 -10 -9 -22 -13
-28 -4 -5 2 -50 15 -100 31 -126 39 -294 20 -431 -8 -60 -20 -169 -25 -242
l-9 -133 -51 -88 c-80 -138 -90 -178 -100 -383 -9 -175 -3 -294 20 -377 12
-45 1 -84 -27 -96 -17 -7 -123 -14 -444 -31 -140 -8 -189 2 -215 42 -12 17
-14 35 -9 61 14 79 159 340 579 1048 128 215 237 402 244 417 32 74 22 210
-20 263 l-20 26 27 34 c29 39 38 44 28 18z m-48 -113 c18 -36 20 -80 2 -80 -7
0 -49 -32 -92 -71 -44 -39 -81 -66 -83 -61 -8 26 124 242 149 242 5 0 15 -13
24 -30z m-205 -220 c10 -18 3 -28 -47 -79 -32 -32 -110 -134 -173 -227 -120
-176 -220 -301 -316 -394 -31 -30 -109 -120 -174 -200 -102 -126 -143 -167
-245 -249 -24 -20 -7 1 265 334 121 149 323 397 448 552 125 155 228 282 229
283 1 0 7 -9 13 -20z m1117 -934 c-7 -73 -34 -129 -95 -201 -28 -33 -81 -114
-118 -180 -36 -66 -75 -129 -86 -140 l-20 -20 17 35 c10 19 73 139 140 265 67
127 127 245 135 263 20 50 34 39 27 -22z"/>
</g>
</svg>
