<?xml version="1.0" standalone="no"?>
<!DOCTYPE svg PUBLIC "-//W3C//DTD SVG 20010904//EN"
 "http://www.w3.org/TR/2001/REC-SVG-20010904/DTD/svg10.dtd">
<svg version="1.0" xmlns="http://www.w3.org/2000/svg"
 width="360.000000pt" height="360.000000pt" viewBox="0 0 360.000000 360.000000"
 preserveAspectRatio="xMidYMid meet">
<metadata>
Created by potrace 1.16, written by Peter Selinger 2001-2019
</metadata>
<g transform="translate(0.000000,360.000000) scale(0.100000,-0.100000)"
fill="#000000" stroke="none">
<path d="M1511 3028 c-19 -12 -74 -78 -121 -146 -123 -174 -149 -204 -459
-517 -169 -171 -283 -293 -291 -314 -11 -28 -11 -41 0 -80 25 -92 31 -81 -82
-168 -114 -88 -178 -153 -178 -181 0 -28 32 -52 69 -52 99 0 214 129 229 259
7 56 9 59 77 118 39 33 162 155 274 271 210 219 288 286 427 365 90 52 105 56
97 27 -4 -15 0 -20 16 -20 12 0 31 5 42 10 12 7 19 7 19 1 0 -5 -27 -26 -61
-46 -33 -21 -58 -39 -56 -42 8 -7 116 66 127 87 8 15 6 24 -10 40 -26 26 -51
20 -145 -29 -170 -91 -266 -170 -463 -384 -139 -150 -324 -327 -343 -327 -9 0
-39 88 -39 115 0 37 49 93 317 361 263 262 349 359 449 509 74 112 122 155
173 155 49 0 171 -61 266 -132 62 -48 310 -289 451 -441 30 -32 54 -53 54 -46
0 18 -384 402 -480 480 -103 83 -211 140 -277 146 -39 4 -55 0 -82 -19z m-852
-1246 c-27 -96 -136 -202 -209 -202 -50 0 -67 20 -50 59 14 35 38 57 165 156
92 72 100 76 103 55 2 -13 -2 -43 -9 -68z"/>
<path d="M1670 2538 c-63 -17 -130 -32 -148 -32 -19 -1 -46 -12 -65 -27 -18
-15 -57 -39 -87 -54 -56 -28 -100 -62 -100 -77 0 -21 39 -3 99 46 36 29 85 63
108 75 l42 21 3 -22 c5 -34 28 -34 28 0 0 29 0 30 120 60 114 28 120 29 120
11 0 -21 10 -27 55 -31 33 -3 46 22 25 47 -19 22 -73 18 -200 -17z"/>
<path d="M1895 2506 c-44 -28 -60 -32 -49 -14 5 8 2 9 -12 3 -10 -4 -62 -20
-114 -35 -130 -38 -142 -43 -224 -100 -40 -28 -77 -50 -83 -50 -14 0 -37 -29
-30 -37 4 -3 18 2 31 11 14 9 48 21 75 27 29 6 80 30 118 55 66 43 68 44 71
22 9 -58 45 -64 41 -7 l-3 41 68 24 c38 13 88 35 112 49 52 30 51 30 50 3 -1
-20 4 -23 31 -22 22 1 30 -2 26 -11 -8 -24 -105 -83 -208 -129 -55 -24 -129
-61 -163 -82 -35 -22 -80 -49 -99 -61 -44 -26 -60 -50 -44 -66 9 -9 14 -8 21
3 13 21 12 33 -2 24 -7 -4 -8 -3 -4 5 4 6 11 9 16 6 4 -3 13 2 20 10 7 8 16
15 21 15 5 0 73 25 151 56 114 45 224 83 246 84 1 0 0 -11 -4 -24 -5 -20 -1
-25 22 -33 l27 -9 -29 -21 c-34 -24 -146 -73 -168 -73 -8 0 -18 10 -22 23 -9
29 -24 38 -46 26 -25 -14 -24 -59 2 -66 11 -3 20 -9 20 -12 0 -4 -50 -43 -111
-86 -61 -43 -127 -97 -147 -120 -20 -23 -50 -45 -65 -49 -34 -8 -79 -54 -75
-75 6 -32 36 -21 72 27 35 45 43 50 98 60 45 8 74 22 116 53 43 33 65 43 95
43 45 1 58 -14 25 -29 -15 -7 -22 -18 -21 -31 1 -14 -7 -23 -27 -31 -18 -7
-35 -25 -47 -49 -13 -28 -31 -45 -63 -61 -160 -78 -219 -103 -245 -103 -17 0
-73 -10 -125 -21 -52 -12 -115 -23 -140 -25 -150 -13 -269 -48 -315 -94 -24
-25 -28 -33 -19 -48 22 -32 70 -18 173 51 53 36 110 68 128 72 42 8 72 -14
162 -124 130 -158 215 -201 297 -151 52 33 207 223 439 540 196 269 350 451
395 470 36 15 50 8 143 -76 39 -36 126 -109 192 -162 66 -53 140 -115 164
-137 61 -55 161 -182 161 -205 0 -10 -59 -82 -131 -161 -72 -79 -162 -187
-200 -239 -38 -52 -79 -107 -91 -121 l-23 -26 -54 53 -54 53 36 -6 c32 -5 37
-2 51 25 9 17 16 51 16 76 0 42 -4 50 -55 98 -58 55 -75 93 -90 200 -3 25 -16
61 -29 80 -22 32 -24 33 -85 31 -35 -1 -72 -8 -84 -16 -23 -15 -23 -14 -22 45
0 48 -4 62 -19 74 -31 22 -44 17 -72 -28 -14 -24 -44 -61 -65 -83 -42 -44 -51
-70 -89 -260 -12 -60 -33 -157 -47 -215 -23 -97 -23 -111 -12 -181 6 -41 9
-92 5 -113 -6 -32 -10 -36 -29 -30 -53 16 -147 84 -262 189 -78 72 -104 80
-91 31 7 -27 246 -234 302 -261 26 -12 38 -13 55 -5 24 14 26 24 -28 -146 -20
-61 -34 -118 -30 -127 3 -9 23 -21 44 -27 55 -15 225 -23 243 -11 11 8 17 38
21 113 4 68 11 114 23 136 24 46 40 31 32 -29 -18 -142 -18 -143 3 -177 48
-76 234 -158 379 -168 42 -2 205 -1 362 5 l285 9 -355 -2 c-347 -1 -357 0
-425 22 -135 45 -238 114 -252 170 -3 13 0 56 7 94 11 54 11 77 2 101 -10 27
-9 35 14 66 14 20 58 66 97 102 l72 67 -43 46 c-46 50 -48 57 -27 101 11 24
14 26 14 10 1 -11 8 -31 17 -43 8 -12 10 -22 5 -22 -31 0 8 -34 203 -177 36
-27 59 -29 76 -8 11 13 10 22 -6 53 -35 71 -36 68 10 124 23 29 61 80 83 113
22 33 81 104 129 158 168 185 194 217 194 240 0 30 -120 175 -197 240 -32 27
-92 75 -133 107 -41 32 -115 95 -165 140 -111 101 -137 116 -174 100 -57 -23
-164 -150 -478 -570 -287 -384 -357 -460 -424 -460 -38 0 -108 42 -157 95
-111 120 -172 194 -164 199 14 8 208 46 238 46 15 0 46 10 68 23 23 13 74 37
114 53 80 31 108 53 134 102 9 18 30 37 45 43 40 15 63 39 63 64 0 29 -19 45
-53 45 -33 0 -54 -10 -113 -55 -24 -18 -58 -36 -76 -40 -18 -4 -42 -9 -53 -12
-34 -9 51 73 140 134 44 31 94 69 110 84 17 15 61 39 100 54 101 38 150 69
165 106 12 28 12 33 -6 46 -27 21 -95 11 -200 -30 -209 -80 -229 -87 -209 -71
11 9 97 54 191 99 183 89 228 124 222 174 -3 23 -8 26 -43 29 -29 2 -51 -5
-80 -22z m299 -640 c0 -42 -7 -63 -32 -103 -18 -27 -32 -60 -32 -72 0 -13 -9
-35 -20 -49 -19 -24 -20 -34 -14 -134 l7 -107 -61 -66 c-75 -80 -91 -123 -74
-202 19 -92 54 -129 139 -144 25 -5 48 -10 49 -12 1 -1 -6 -27 -16 -57 -13
-36 -19 -83 -20 -136 0 -106 -3 -109 -123 -101 -116 8 -167 22 -167 45 0 10
18 71 39 135 46 135 59 244 42 329 -11 50 -9 68 18 184 16 71 34 158 41 194 6
36 17 88 25 116 14 49 16 50 46 46 24 -3 30 -1 27 9 -2 8 -17 15 -31 17 -15 2
-27 7 -27 12 0 17 86 90 107 90 29 0 53 26 53 58 0 21 2 24 13 13 7 -7 12 -35
11 -65z m179 -38 c18 -14 47 -88 47 -122 0 -13 7 -47 16 -77 12 -41 28 -66 70
-105 47 -46 54 -57 54 -91 0 -56 -20 -88 -55 -89 -17 -1 -37 -2 -45 -3 -9 -1
7 -21 40 -51 30 -27 50 -49 44 -50 -20 0 -116 92 -104 100 7 4 2 13 -15 24
-14 9 -23 21 -20 27 4 5 -9 16 -27 24 -20 8 -73 56 -122 109 -84 92 -100 118
-46 76 47 -37 61 -23 53 51 -4 29 -1 49 6 53 16 10 14 26 -4 26 -8 0 -15 -5
-15 -10 0 -15 -44 -30 -68 -23 -19 5 -19 7 9 64 23 45 36 60 57 65 15 3 32 7
37 9 24 8 73 4 88 -7z m-119 -318 c56 -61 82 -98 76 -104 -17 -17 -11 -29 8
-15 15 13 16 12 4 -3 -8 -10 -18 -16 -24 -15 -14 3 -39 -72 -32 -97 3 -12 22
-35 42 -53 l37 -32 -80 -74 c-44 -41 -87 -86 -95 -101 -13 -26 -17 -27 -65
-21 -95 13 -140 61 -152 163 -7 61 10 97 83 174 46 48 54 62 54 94 0 30 3 35
12 26 7 -7 26 -12 43 -12 19 0 44 -11 68 -31 73 -60 54 -7 -29 81 -45 48 -64
86 -57 108 8 20 17 13 107 -88z m171 -163 c4 5 5 3 2 -3 -8 -14 108 -127 125
-122 14 5 71 -101 64 -119 -10 -26 -41 -11 -153 73 -62 48 -113 89 -113 91 0
7 45 -19 66 -39 20 -17 37 -24 69 -27 6 -1 4 -5 -4 -10 -10 -7 -8 -12 10 -25
28 -19 49 -21 49 -3 0 8 -30 31 -67 53 -80 46 -143 100 -143 122 0 8 8 24 17
34 16 18 17 18 43 -7 14 -14 30 -22 35 -18z"/>
</g>
</svg>
